<svg width="512" height="512" xmlns="http://www.w3.org/2000/svg">

 <g>
  <title>background</title>
  <rect fill="none" id="canvas_background" height="402" width="582" y="-1" x="-1"/>
 </g>
 <g>
  <title>Layer 1</title>
  <g id="svg_1">
   <path fill="#666666" id="svg_2" d="m378.353,46.5l0,-0.3c-11.696,-19.992 -6.306,-10.725 -22.5,-38.699c-4.204,-7.2 -13.502,-9.6 -20.702,-5.4l-90.901,52.499l-22.5,-39.001c-4.2,-7.2 -13.202,-9.598 -20.402,-5.7l-104.099,60c-7.2,4.2 -9.598,13.5 -5.398,20.7l22.5,39.001l-90.901,52.5c-6.899,3.9 -9.602,12.9 -5.398,20.4c6.04,10.509 13.249,23.329 19.497,33.6c0,0 0,0.3 0.3,0.3c7.5,9.3 20.698,11.999 31.201,5.999c59.863,-34.919 300.86,-173.686 300.86,-173.686c8.667,-4.939 9.964,-13.098 8.443,-22.213zm-237.902,68.1l-15,-26.1l77.999,-45l15,26.1l-77.999,45z"/>
   <path fill="#666666" id="svg_3" d="m405.863,196.494c0.439,-4.219 -0.938,-8.423 -3.779,-11.558c-2.842,-3.149 -6.885,-4.937 -11.133,-4.937l-154.007,0l-153.676,88.732l15.124,152.269l57.308,0l-13.363,-134.506c-0.85,-8.247 5.186,-15.601 13.418,-16.421c7.998,-0.703 15.586,5.2 16.406,13.433l13.664,137.494l40.126,0l0,-136c0,-8.291 6.709,-15 15,-15s15,6.709 15,15l0,136l40.126,0l13.663,-137.494c0.791,-8.232 8.408,-14.092 16.406,-13.433c8.232,0.82 14.268,8.174 13.418,16.421l-13.363,134.506l57.312,0l22.35,-224.506z"/>
   <path fill="#666666" id="svg_4" d="m106.039,498.494c0.761,7.661 7.207,13.506 14.912,13.506l240,0c7.705,0 14.15,-5.845 14.912,-13.506l4.651,-47.494l-279.126,0l4.651,47.494z"/>
   <path fill="#666666" id="svg_5" d="m480.951,90l-30,0c-8.291,0 -15,6.709 -15,15s6.709,15 15,15l30,0c8.291,0 15,-6.709 15,-15s-6.709,-15 -15,-15z"/>
   <path fill="#666666" id="svg_6" d="m431.556,154.395c-5.859,-5.859 -15.352,-5.859 -21.211,0s-5.859,15.352 0,21.211l30,30c5.86,5.86 15.351,5.86 21.211,0c5.859,-5.859 5.859,-15.352 0,-21.211l-30,-30z"/>
   <path fill="#666666" id="svg_7" d="m431.556,55.605l30,-30c5.859,-5.859 5.859,-15.352 0,-21.211s-15.352,-5.859 -21.211,0l-30,30c-5.859,5.859 -5.859,15.352 0,21.211c5.86,5.86 15.352,5.86 21.211,0z"/>
  </g>
 </g>
</svg>