<svg width="512" height="512" xmlns="http://www.w3.org/2000/svg" preserveAspectRatio="xMidYMid meet">
 <metadata>Created by potrace 1.15, written by Peter Selinger 2001-2017</metadata>

 <g>
  <title>background</title>
  <rect fill="none" id="canvas_background" height="402" width="582" y="-1" x="-1"/>
 </g>
 <g>
  <title>Layer 1</title>
  <g id="svg_1" fill="#000000" transform="translate(0,512) scale(0.10000000149011612,-0.10000000149011612) ">
   <path fill="#666666" id="svg_2" d="m675,4708c425,-430 503,-518 574,-642c52,-92 125,-269 147,-358l16,-66l-58,-101l-59,-101l-489,0l-489,0l6,-120c16,-288 82,-447 256,-612c143,-137 281,-198 493,-219c68,-7 124,-13 125,-14c2,-1 52,-196 113,-433c120,-476 154,-585 207,-682c110,-202 283,-378 477,-486l84,-46l6,-58c15,-131 72,-279 158,-410c45,-70 246,-276 291,-299c36,-19 53,-9 165,95c193,180 301,370 335,586l13,82l85,50c125,75 175,114 277,219c202,210 243,308 413,981l102,406l35,0c71,0 246,32 322,59c251,89 440,307 494,573c9,45 16,127 16,196l0,119l-92,7c-50,3 -266,6 -480,6c-382,0 -388,0 -409,21c-25,25 -99,178 -99,204c0,60 98,303 171,423c71,118 116,167 542,604l418,428l-353,-2c-194,-1 -319,-4 -278,-7l75,-6l-108,-18c-372,-63 -758,-278 -1013,-567c-42,-47 -110,-137 -151,-200c-42,-63 -79,-118 -83,-123c-3,-4 -40,0 -81,9c-106,25 -473,25 -577,1c-40,-9 -75,-17 -77,-17c-1,0 -27,37 -55,83c-230,362 -555,618 -956,752c-103,35 -280,75 -328,75c-14,0 -26,5 -26,10c0,6 -100,10 -281,10l-281,0l407,-412zm3289,-30c-16,-18 -70,-76 -119,-128c-104,-109 -184,-213 -248,-320c-41,-71 -116,-229 -132,-278c-3,-13 -10,-22 -13,-20c-31,14 -212,140 -212,147c0,5 22,42 49,83c123,184 311,354 507,460c67,36 179,87 193,88c3,0 -8,-15 -25,-32zm-2693,-32c157,-79 249,-146 379,-276c114,-113 239,-278 226,-298c-3,-6 -27,-22 -54,-37c-26,-15 -70,-45 -99,-66c-29,-22 -54,-39 -57,-39c-2,0 -10,17 -16,38c-22,69 -129,272 -191,363c-53,78 -116,150 -283,327c-22,23 -34,42 -27,42c8,0 62,-24 122,-54zm1518,-752c244,-50 490,-209 648,-419c87,-116 154,-269 189,-434c20,-94 23,-282 5,-376c-19,-101 -217,-904 -247,-1005c-72,-234 -223,-413 -444,-525c-58,-29 -184,-75 -207,-75c-10,0 -13,35 -13,165l0,165l39,25c54,34 124,108 155,165c29,53 46,148 46,263l0,77l-160,0l-160,0l0,-89c0,-80 -3,-93 -23,-117c-33,-37 -81,-37 -114,0c-20,24 -23,37 -23,117l0,89l-160,0l-160,0l0,-77c0,-109 16,-206 41,-256c32,-62 94,-132 150,-168l49,-32l0,-164c0,-90 -4,-163 -9,-163c-5,0 -40,9 -77,21c-270,83 -487,295 -572,559c-12,36 -55,200 -96,365c-168,673 -183,755 -166,922c41,397 256,705 616,886c86,43 231,86 328,97c93,11 272,3 365,-16zm-1623,-811c-3,-21 -9,-93 -12,-161l-7,-123l-56,7c-183,22 -321,114 -395,262l-26,52l251,0l251,0l-6,-37zm3258,-15c-34,-66 -130,-167 -192,-201c-54,-29 -134,-53 -208,-61l-51,-6l-6,137c-4,76 -10,148 -13,161l-6,22l251,0l251,0l-26,-52zm-1724,-2352c0,-23 -77,-169 -110,-206l-30,-35l-30,34c-32,37 -85,139 -96,184l-6,28l83,-3c68,-2 83,-6 81,-18c-3,-12 0,-11 15,2c10,9 32,18 48,21c17,2 33,5 38,6c4,0 7,-5 7,-13z"/>
   <path fill="#666666" id="svg_3" d="m2005,2937c-26,-14 -48,-37 -62,-67c-38,-75 -28,-123 42,-190c32,-31 42,-35 89,-35c42,0 61,6 94,28c89,63 96,163 15,239c-55,52 -114,61 -178,25z"/>
   <path fill="#666666" id="svg_4" d="m2975,2946c-66,-29 -106,-112 -90,-184c8,-38 68,-98 111,-112c67,-23 150,14 184,81c25,48 25,90 1,137c-38,72 -137,110 -206,78z"/>
  </g>
 </g>
</svg>