<svg width="512" height="512" xmlns="http://www.w3.org/2000/svg">

 <g>
  <title>background</title>
  <rect fill="none" id="canvas_background" height="402" width="582" y="-1" x="-1"/>
 </g>
 <g>
  <title>Layer 1</title>
  <g id="svg_1">
   <path fill="#666666" id="svg_2" d="m391.017,251.454l35.714,0c8.074,0 14.643,-6.569 14.643,-14.643l0,-35.714c0,-8.074 -6.569,-14.643 -14.643,-14.643l-35.714,0c-8.074,0 -14.643,6.569 -14.643,14.643l0,35.714c0,8.074 6.569,14.643 14.643,14.643zm0.357,-50l35,0l0,35l-35,0l0,-35zm-0.357,145l35.714,0c8.074,0 14.643,-6.569 14.643,-14.643l0,-35.714c0,-8.074 -6.569,-14.643 -14.643,-14.643l-35.714,0c-8.074,0 -14.643,6.569 -14.643,14.643l0,35.714c0,8.074 6.569,14.643 14.643,14.643zm0.357,-50l35,0l0,35l-35,0l0,-35zm-102.273,-45l35.714,0c8.074,0 14.643,-6.569 14.643,-14.643l0,-35.714c0,-8.074 -6.569,-14.643 -14.643,-14.643l-35.714,0c-8.074,0 -14.643,6.569 -14.643,14.643l0,35.714c0,8.074 6.569,14.643 14.643,14.643zm0.357,-50l35,0l0,35l-35,0l0,-35zm-168.475,170.546l-35.714,0c-8.074,0 -14.643,6.569 -14.643,14.643l0,35.714c0,8.074 6.569,14.643 14.643,14.643l35.714,0c8.074,0 14.643,-6.569 14.643,-14.643l0,-35.714c0,-8.074 -6.569,-14.643 -14.643,-14.643zm-0.357,50l-35,0l0,-35l35,0l0,35zm0.357,-235.546l-35.714,0c-8.074,0 -14.643,6.569 -14.643,14.643l0,35.714c0,8.074 6.569,14.643 14.643,14.643l35.714,0c8.074,0 14.643,-6.569 14.643,-14.643l0,-35.714c0,-8.075 -6.569,-14.643 -14.643,-14.643zm-0.357,50l-35,0l0,-35l35,0l0,35zm168.475,107.773l35.714,0c8.074,0 14.643,-6.569 14.643,-14.643l0,-35.714c0,-8.074 -6.569,-14.643 -14.643,-14.643l-35.714,0c-8.074,0 -14.643,6.569 -14.643,14.643l0,35.714c0,8.074 6.569,14.643 14.643,14.643zm0.357,-50l35,0l0,35l-35,0l0,-35zm159.365,-259.953l-32.066,0l0,-11.467c0,-12.576 -10.231,-22.807 -22.807,-22.807l-3.444,0c-12.575,0 -22.806,10.231 -22.806,22.807l0,11.467l-223.4,0l0,-11.467c0,-12.576 -10.231,-22.807 -22.807,-22.807l-3.444,0c-12.576,0 -22.807,10.231 -22.807,22.807l0,11.467l-32.065,0c-20.705,0 -37.55,16.845 -37.55,37.55l0,402.676c0,20.678 16.822,37.5 37.5,37.5l385.748,0c20.678,0 37.5,-16.822 37.5,-37.5l0,-402.676c-0.001,-20.705 -16.846,-37.55 -37.552,-37.55zm-66.123,-11.467c0,-4.305 3.502,-7.807 7.807,-7.807l3.444,0c4.305,0 7.807,3.502 7.807,7.807l0,11.467l-19.058,0l0,-11.467zm-272.457,0c0,-4.305 3.502,-7.807 7.807,-7.807l3.444,0c4.305,0 7.807,3.502 7.807,7.807l0,11.467l-19.057,0l0,-11.467l-0.001,0zm361.131,451.693c0,12.407 -10.093,22.5 -22.5,22.5l-385.748,0c-12.407,0 -22.5,-10.093 -22.5,-22.5l0,-0.047c6.284,4.735 14.095,7.547 22.551,7.547l304.083,0c10.03,0 19.46,-3.906 26.552,-10.999l77.562,-77.562l0,81.061zm-85.215,-17.059c0.588,-2.427 0.908,-4.958 0.908,-7.563l0,-50.064c0,-9.44 7.681,-17.121 17.122,-17.121l50.063,0c2.605,0 5.136,-0.32 7.563,-0.908l-75.656,75.656zm85.215,-315.987l-319.574,0c-4.142,0 -7.5,3.358 -7.5,7.5s3.358,7.5 7.5,7.5l319.574,0l0,194.118c0,9.441 -7.681,17.122 -17.122,17.122l-50.063,0c-17.712,0 -32.122,14.41 -32.122,32.121l0,50.064c0,9.441 -7.681,17.122 -17.121,17.122l-291.769,0c-12.434,0 -22.55,-10.116 -22.55,-22.551l0,-287.996l81.173,0c4.142,0 7.5,-3.358 7.5,-7.5s-3.358,-7.5 -7.5,-7.5l-81.174,0l0,-69.63c0,-12.434 10.116,-22.55 22.55,-22.55l32.066,0l0,22.052c0,12.576 10.231,22.807 22.807,22.807c4.142,0 7.5,-3.358 7.5,-7.5s-3.358,-7.5 -7.5,-7.5c-4.305,0 -7.807,-3.502 -7.807,-7.807l0,-22.052l257.458,0l0,22.052c0,12.576 10.231,22.807 22.807,22.807c4.142,0 7.5,-3.358 7.5,-7.5s-3.358,-7.5 -7.5,-7.5c-4.305,0 -7.807,-3.502 -7.807,-7.807l0,-22.052l66.124,0c12.434,0 22.55,10.116 22.55,22.55l0,69.63zm-350.391,137.773l-35.714,0c-8.074,0 -14.643,6.569 -14.643,14.643l0,35.714c0,8.074 6.569,14.643 14.643,14.643l35.714,0c8.074,0 14.643,-6.569 14.643,-14.643l0,-35.714c0,-8.075 -6.569,-14.643 -14.643,-14.643zm-0.357,50l-35,0l0,-35l35,0l0,35zm66.559,-77.773l35.714,0c8.074,0 14.643,-6.569 14.643,-14.643l0,-35.714c0,-8.074 -6.569,-14.643 -14.643,-14.643l-35.714,0c-8.074,0 -14.643,6.569 -14.643,14.643l0,35.714c0,8.074 6.569,14.643 14.643,14.643zm0.357,-50l35,0l0,35l-35,0l0,-35zm101.907,220.546c-0.186,-3.977 -3.469,-7.143 -7.492,-7.143c-4.142,0 -7.5,3.358 -7.5,7.5c0,8.074 6.569,14.643 14.643,14.643l35.714,0c8.074,0 14.643,-6.569 14.643,-14.643l0,-35.714c0,-8.074 -6.569,-14.643 -14.643,-14.643l-35.714,0c-8.074,0 -14.643,6.569 -14.643,14.643l0,10.3c0,4.142 3.358,7.5 7.5,7.5s7.5,-3.358 7.5,-7.5l0,-9.943l35,0l0,35l-35.008,0zm-102.264,-77.773l35.714,0c8.074,0 14.643,-6.569 14.643,-14.643l0,-35.714c0,-8.074 -6.569,-14.643 -14.643,-14.643l-35.714,0c-8.074,0 -14.643,6.569 -14.643,14.643l0,35.714c0,8.074 6.569,14.643 14.643,14.643zm0.357,-50l35,0l0,35l-35,0l0,-35zm-0.357,142.773l35.714,0c8.074,0 14.643,-6.569 14.643,-14.643l0,-35.714c0,-8.074 -6.569,-14.643 -14.643,-14.643l-35.714,0c-8.074,0 -14.643,6.569 -14.643,14.643l0,35.714c0,8.074 6.569,14.643 14.643,14.643zm0.357,-50l35,0l0,35l-35,0l0,-35z"/>
  </g>
 </g>
</svg>