<svg width="512" height="512" xmlns="http://www.w3.org/2000/svg">
 <g>
  <title>background</title>
  <rect x="-1" y="-1" width="570.893043" height="570.893043" id="canvas_background" fill="none"/>
 </g>

 <g>
  <title>Layer 1</title>
  <g id="svg_1">
   <path d="m391.017,251.454l35.714,0c8.074,0 14.643,-6.569 14.643,-14.643l0,-35.714c0,-8.074 -6.569,-14.643 -14.643,-14.643l-35.714,0c-8.074,0 -14.643,6.569 -14.643,14.643l0,35.714c0,8.074 6.569,14.643 14.643,14.643zm0.357,-50l35,0l0,35l-35,0l0,-35zm-0.357,145l35.714,0c8.074,0 14.643,-6.569 14.643,-14.643l0,-35.714c0,-8.074 -6.569,-14.643 -14.643,-14.643l-35.714,0c-8.074,0 -14.643,6.569 -14.643,14.643l0,35.714c0,8.074 6.569,14.643 14.643,14.643zm0.357,-50l35,0l0,35l-35,0l0,-35zm-102.273,-45l35.714,0c8.074,0 14.643,-6.569 14.643,-14.643l0,-35.714c0,-8.074 -6.569,-14.643 -14.643,-14.643l-35.714,0c-8.074,0 -14.643,6.569 -14.643,14.643l0,35.714c0,8.074 6.569,14.643 14.643,14.643zm0.357,-50l35,0l0,35l-35,0l0,-35zm-168.475,170.546l-35.714,0c-8.074,0 -14.643,6.569 -14.643,14.643l0,35.714c0,8.074 6.569,14.643 14.643,14.643l35.714,0c8.074,0 14.643,-6.569 14.643,-14.643l0,-35.714c0,-8.074 -6.569,-14.643 -14.643,-14.643zm-0.357,50l-35,0l0,-35l35,0l0,35zm0.357,-235.546l-35.714,0c-8.074,0 -14.643,6.569 -14.643,14.643l0,35.714c0,8.074 6.569,14.643 14.643,14.643l35.714,0c8.074,0 14.643,-6.569 14.643,-14.643l0,-35.714c0,-8.075 -6.569,-14.643 -14.643,-14.643zm-0.357,50l-35,0l0,-35l35,0l0,35zm168.475,107.773l35.714,0c8.074,0 14.643,-6.569 14.643,-14.643l0,-35.714c0,-8.074 -6.569,-14.643 -14.643,-14.643l-35.714,0c-8.074,0 -14.643,6.569 -14.643,14.643l0,35.714c0,8.074 6.569,14.643 14.643,14.643zm0.357,-50l35,0l0,35l-35,0l0,-35zm159.365,-259.953l-32.066,0l0,-11.467c0,-12.576 -10.231,-22.807 -22.807,-22.807l-3.444,0c-12.575,0 -22.806,10.231 -22.806,22.807l0,11.467l-223.4,0l0,-11.467c0,-12.576 -10.231,-22.807 -22.807,-22.807l-3.444,0c-12.576,0 -22.807,10.231 -22.807,22.807l0,11.467l-32.065,0c-20.705,0 -37.55,16.845 -37.55,37.55l0,402.676c0,20.678 16.822,37.5 37.5,37.5l385.748,0c20.678,0 37.5,-16.822 37.5,-37.5l0,-402.676c-0.001,-20.705 -16.846,-37.55 -37.552,-37.55zm-66.123,-11.467c0,-4.305 3.502,-7.807 7.807,-7.807l3.444,0c4.305,0 7.807,3.502 7.807,7.807l0,11.467l-19.058,0l0,-11.467zm-272.457,0c0,-4.305 3.502,-7.807 7.807,-7.807l3.444,0c4.305,0 7.807,3.502 7.807,7.807l0,11.467l-19.057,0l0,-11.467l-0.001,0zm361.131,451.693c0,12.407 -10.093,22.5 -22.5,22.5l-385.748,0c-12.407,0 -22.5,-10.093 -22.5,-22.5l0,-0.047c6.284,4.735 14.095,7.547 22.551,7.547l304.083,0c10.03,0 19.46,-3.906 26.552,-10.999l77.562,-77.562l0,81.061zm-85.215,-17.059c0.588,-2.427 0.908,-4.958 0.908,-7.563l0,-50.064c0,-9.44 7.681,-17.121 17.122,-17.121l50.063,0c2.605,0 5.136,-0.32 7.563,-0.908l-75.656,75.656zm85.215,-315.987l-319.574,0c-4.142,0 -7.5,3.358 -7.5,7.5s3.358,7.5 7.5,7.5l319.574,0l0,194.118c0,9.441 -7.681,17.122 -17.122,17.122l-50.063,0c-17.712,0 -32.122,14.41 -32.122,32.121l0,50.064c0,9.441 -7.681,17.122 -17.121,17.122l-291.769,0c-12.434,0 -22.55,-10.116 -22.55,-22.551l0,-287.996l81.173,0c4.142,0 7.5,-3.358 7.5,-7.5s-3.358,-7.5 -7.5,-7.5l-81.174,0l0,-69.63c0,-12.434 10.116,-22.55 22.55,-22.55l32.066,0l0,22.052c0,12.576 10.231,22.807 22.807,22.807c4.142,0 7.5,-3.358 7.5,-7.5s-3.358,-7.5 -7.5,-7.5c-4.305,0 -7.807,-3.502 -7.807,-7.807l0,-22.052l257.458,0l0,22.052c0,12.576 10.231,22.807 22.807,22.807c4.142,0 7.5,-3.358 7.5,-7.5s-3.358,-7.5 -7.5,-7.5c-4.305,0 -7.807,-3.502 -7.807,-7.807l0,-22.052l66.124,0c12.434,0 22.55,10.116 22.55,22.55l0,69.63zm-350.391,137.773l-35.714,0c-8.074,0 -14.643,6.569 -14.643,14.643l0,35.714c0,8.074 6.569,14.643 14.643,14.643l35.714,0c8.074,0 14.643,-6.569 14.643,-14.643l0,-35.714c0,-8.075 -6.569,-14.643 -14.643,-14.643zm-0.357,50l-35,0l0,-35l35,0l0,35zm66.559,-77.773l35.714,0c8.074,0 14.643,-6.569 14.643,-14.643l0,-35.714c0,-8.074 -6.569,-14.643 -14.643,-14.643l-35.714,0c-8.074,0 -14.643,6.569 -14.643,14.643l0,35.714c0,8.074 6.569,14.643 14.643,14.643zm0.357,-50l35,0l0,35l-35,0l0,-35zm101.907,220.546c-0.186,-3.977 -3.469,-7.143 -7.492,-7.143c-4.142,0 -7.5,3.358 -7.5,7.5c0,8.074 6.569,14.643 14.643,14.643l35.714,0c8.074,0 14.643,-6.569 14.643,-14.643l0,-35.714c0,-8.074 -6.569,-14.643 -14.643,-14.643l-35.714,0c-8.074,0 -14.643,6.569 -14.643,14.643l0,10.3c0,4.142 3.358,7.5 7.5,7.5s7.5,-3.358 7.5,-7.5l0,-9.943l35,0l0,35l-35.008,0zm-102.264,-77.773l35.714,0c8.074,0 14.643,-6.569 14.643,-14.643l0,-35.714c0,-8.074 -6.569,-14.643 -14.643,-14.643l-35.714,0c-8.074,0 -14.643,6.569 -14.643,14.643l0,35.714c0,8.074 6.569,14.643 14.643,14.643zm0.357,-50l35,0l0,35l-35,0l0,-35zm-0.357,142.773l35.714,0c8.074,0 14.643,-6.569 14.643,-14.643l0,-35.714c0,-8.074 -6.569,-14.643 -14.643,-14.643l-35.714,0c-8.074,0 -14.643,6.569 -14.643,14.643l0,35.714c0,8.074 6.569,14.643 14.643,14.643zm0.357,-50l35,0l0,35l-35,0l0,-35z" id="svg_2" fill="#666666"/>
  </g>
  <metadata transform="matrix(0.11111111773384952,0,0,0.11111111773384952,0,0) ">Created by potrace 1.15, written by Peter Selinger 2001-2017</metadata>
  <g stroke="null" id="svg_9">
   <g id="svg_6" fill="#000000" transform="matrix(0.017556424298284874,0,0,-0.016775174969613282,-41.50780327993746,-25.249779027076045) ">
    <path stroke="null" fill="#666666" id="svg_7" d="m18493.614258,-5009.123291l-374,-371l-48,16c-112,39 -237,30 -345,-25c-31,-16 -95,-63 -140,-104c-46,-41 -86,-75 -91,-75c-4,0 -24,11 -45,24c-64,42 -142,59 -256,54c-167,-6 -157,2 -611,-447c-214,-212 -683,-678 -1042,-1035l-651,-649l-69,60c-37,33 -78,65 -90,72c-48,25 -128,6 -172,-43c-32,-34 -41,-119 -17,-162c9,-16 103,-119 210,-229l195,-200l-244,-244l-243,-244l-122,122c-68,67 -140,131 -161,141c-70,36 -146,19 -193,-42c-21,-29 -26,-46 -26,-94l0,-59l608,-607l607,-608l59,0c98,0 156,60 156,161l0,51l-142,144l-142,145l244,244l244,245l202,-200c242,-241 270,-257 364,-207c52,27 80,75 80,137c0,53 -12,74 -89,152l-55,58l1030,1032c631,632 1041,1051 1057,1078c42,72 60,162 54,259c-4,72 -11,95 -45,164l-40,81l74,79c49,52 86,103 111,155c37,75 38,78 38,191c0,88 -5,125 -18,155l-18,40l371,371l370,371l0,107l0,107l-105,0l-105,0l-375,-371zm-494,-662c61,-41 86,-125 55,-185c-8,-15 -40,-52 -70,-82l-56,-55l-102,103l-103,102l50,51c28,28 64,60 80,70c41,26 104,24 146,-4zm-724,-128c36,-13 618,-593 638,-635c20,-43 19,-93 -4,-129c-10,-17 -232,-246 -494,-510l-476,-480l-388,387l-388,388l102,102l102,102l99,-96c105,-104 129,-118 196,-118c106,0 178,119 130,213c-9,18 -59,75 -110,127l-94,96l103,102l102,102l90,-91c97,-97 145,-129 197,-129c78,0 148,70 148,146c0,67 -14,91 -117,196l-97,98l40,41c85,88 152,114 221,88zm-939,-1592l382,-382l-420,-420l-420,-420l-387,387l-388,388l205,205c113,113 209,205 215,205c6,0 51,-41 100,-91c101,-101 128,-119 180,-119c78,0 142,55 152,129c9,66 -11,100 -117,206l-100,100l97,97c54,54 102,98 108,98c5,0 182,-172 393,-383zm-1063,-1057l100,-100l-243,-243l-242,-242l-102,103l-103,102l240,240c132,132 242,240 245,240c3,0 50,-45 105,-100z"/>
    <path stroke="null" fill="#666666" id="svg_8" d="m17850.614258,-7478.123291c-131,-80 -74,-280 81,-280l47,0l0,-165l0,-164l-28,-15c-38,-20 -115,-104 -144,-157l-23,-44l0,-605l0,-605l29,-53c34,-61 105,-130 167,-164c44,-23 47,-23 424,-26c254,-2 395,1 425,8c63,15 143,71 185,128c68,92 65,65 63,807l-3,670l-28,-28l-28,-27l-25,29c-13,16 -45,42 -69,58l-45,28l0,163l0,162l53,0c90,0 147,56 147,145c0,59 -25,106 -72,135c-32,19 -52,20 -578,20c-526,0 -546,-1 -578,-20zm728,-430l0,-150l-150,0l-150,0l0,150l0,150l150,0l150,0l0,-150zm182,-468c9,-9 14,-54 16,-147l4,-135l-351,0l-351,0l1,113c2,156 6,170 49,178c19,4 166,6 327,5c224,-1 295,-4 305,-14zm16,-812c-3,-204 -5,-231 -21,-247c-16,-17 -44,-18 -332,-18c-244,0 -317,3 -327,13c-10,10 -14,72 -16,247l-3,235l351,0l352,0l-4,-230z"/>
   </g>
  </g>
 </g>
</svg>