<svg width="512" height="512" xmlns="http://www.w3.org/2000/svg">

 <g>
  <title>background</title>
  <rect fill="none" id="canvas_background" height="402" width="582" y="-1" x="-1"/>
 </g>
 <g>
  <title>Layer 1</title>
  <g id="svg_1">
   <circle fill="#666666" id="svg_2" r="15" cy="346" cx="226"/>
   <circle fill="#666666" id="svg_3" r="15" cy="346" cx="286"/>
   <circle fill="#666666" id="svg_4" r="15" cy="226" cx="196"/>
   <circle fill="#666666" id="svg_5" r="15" cy="226" cx="316"/>
   <path fill="#666666" id="svg_6" d="m15,241l30,0c16.006,0 31.37,-2.767 45.645,-7.831c-0.624,5.658 -2.218,12.117 -5.845,17.754c-15.649,24.318 -23.878,52.151 -23.799,80.489c0.235,84.237 73.637,149.588 157.315,149.588l75.367,0c83.621,0 157.081,-65.305 157.315,-149.588c0.08,-28.339 -8.15,-56.172 -23.799,-80.489c-3.628,-5.638 -5.221,-12.097 -5.845,-17.755c14.276,5.065 29.64,7.832 45.646,7.832l30,0c8.284,0 15,-6.716 15,-15l0,-120c0,-41.458 -34.535,-75 -76,-75l-30,0c-23.505,0 -44.509,10.877 -58.27,27.852c-27.006,-18.051 -59.003,-27.852 -91.73,-27.852s-64.724,9.801 -91.73,27.852c-13.762,-16.975 -34.766,-27.852 -58.27,-27.852l-30,0c-41.458,0 -76,33.535 -76,75l0,120c0,8.284 6.716,15 15,15zm391,-180l30,0c24.935,0 46,20.607 46,45l0,105l-15,0c-58.448,0 -106,-47.103 -106,-105c0,-24.813 20.187,-45 45,-45zm-225,45c0,-7.04 -0.996,-13.848 -2.818,-20.313c22.656,-15.979 49.911,-24.687 77.818,-24.687c27.908,0 55.162,8.708 77.818,24.687c-1.822,6.465 -2.818,13.273 -2.818,20.313c0,46.519 23.826,87.618 60.001,111.904l0,8.785c0,15.32 3.794,29.313 10.971,40.469c12.512,19.441 19.091,41.63 19.027,64.171c-0.181,64.868 -58.484,119.671 -127.315,119.671l-75.367,0c-68.831,0 -127.134,-54.803 -127.315,-119.672c-0.063,-22.539 6.516,-44.729 19.027,-64.171c7.177,-11.154 10.971,-25.148 10.971,-40.468l0,-8.785c36.174,-24.286 60,-65.385 60,-111.904zm-151,0c0,-24.393 21.065,-45 46,-45l30,0c24.813,0 45,20.187 45,45c0,57.897 -47.551,105 -106,105l-15,0l0,-105z"/>
   <path fill="#666666" id="svg_7" d="m208.426,421l95.147,0c31.665,0 57.427,-25.761 57.427,-57.426c0,-15.34 -5.974,-29.761 -16.82,-40.607l-26.36,-26.361c-16.513,-16.512 -38.468,-25.606 -61.82,-25.606s-45.306,9.094 -61.819,25.606l-26.361,26.361c-10.846,10.846 -16.82,25.267 -16.82,40.607c0,31.665 25.761,57.426 57.426,57.426zm-19.393,-76.82l26.361,-26.361c10.846,-10.846 25.267,-16.819 40.606,-16.819s29.76,5.973 40.607,16.82l26.36,26.361c5.181,5.18 8.033,12.067 8.033,19.393c0,15.123 -12.304,27.426 -27.427,27.426l-95.147,0c-15.123,0 -27.426,-12.303 -27.426,-27.426c0,-7.326 2.853,-14.214 8.033,-19.394z"/>
  </g>
 </g>
</svg>