<svg width="512" height="512" xmlns="http://www.w3.org/2000/svg" preserveAspectRatio="xMidYMid meet">
 <metadata>Created by potrace 1.15, written by Peter Selinger 2001-2017</metadata>

 <g>
  <title>background</title>
  <rect fill="none" id="canvas_background" height="402" width="582" y="-1" x="-1"/>
 </g>
 <g>
  <title>Layer 1</title>
  <g id="svg_1" fill="#000000" transform="translate(0,512) scale(0.10000000149011612,-0.10000000149011612) ">
   <path fill="#666666" id="svg_2" d="m786,5089c-14,-17 -26,-37 -26,-44c0,-8 16,-83 36,-166l37,-152l-32,-131c-114,-480 -163,-873 -192,-1541c-14,-331 -6,-1057 15,-1341c34,-450 98,-883 177,-1198l30,-118l-36,-153c-19,-84 -35,-160 -35,-168c0,-9 12,-29 26,-46l26,-31l1753,0l1754,0l20,26c12,15 21,36 21,47c0,11 -16,89 -35,173l-36,153l35,143c95,384 159,891 187,1473c13,271 7,1043 -11,1300c-34,499 -93,922 -176,1263l-35,143l36,153c19,84 35,162 35,173c0,11 -9,32 -21,47l-20,26l-1754,0l-1753,0l-26,-31zm3381,-151c-3,-13 -11,-49 -18,-80l-13,-58l-1576,0l-1576,0l-17,73c-10,39 -17,75 -17,80c0,4 725,7 1611,7l1611,0l-5,-22zm34,-540c105,-530 144,-937 155,-1633c14,-828 -43,-1522 -177,-2138l-32,-147l-1588,0c-874,0 -1589,3 -1589,8c0,4 -14,68 -30,142c-128,566 -189,1300 -177,2120c9,532 31,869 83,1230c27,191 109,612 125,642c9,17 60,18 1597,16l1586,-3l47,-237zm-49,-4153c9,-38 18,-74 18,-78c0,-5 -725,-7 -1611,-6l-1611,2l6,21c3,12 11,47 18,78l12,58l1575,-3l1575,-2l18,-70z"/>
   <path fill="#666666" id="svg_3" d="m1611,3894c-50,-35 -271,-404 -271,-453c0,-29 20,-67 90,-171c87,-128 90,-130 212,-141c57,-4 133,-8 171,-9c37,0 67,-3 68,-7c1,-5 4,-99 7,-209l7,-202l37,-53c41,-59 195,-253 269,-339l47,-54l309,-4l310,-4l103,123c57,67 136,167 175,220l73,97l6,79c3,43 8,139 12,214l6,136l160,7c88,3 169,11 181,18c27,14 32,21 106,128c71,104 91,142 91,172c0,27 -61,142 -151,286c-93,150 -113,172 -155,172c-31,0 -37,-4 -54,-42c-10,-24 -32,-91 -47,-150l-28,-108l-81,0c-91,0 -125,10 -444,133c-107,41 -210,78 -227,82c-43,9 -99,-8 -358,-107c-260,-99 -281,-106 -379,-110l-79,-3l-28,107c-31,118 -59,182 -88,198c-25,13 -22,13 -50,-6zm1221,-332l248,-97l0,-357c0,-199 -4,-359 -9,-362c-5,-3 -73,26 -150,64l-142,70l-219,0l-219,0l-142,-70c-77,-38 -145,-67 -150,-64c-5,3 -9,162 -9,359c0,272 3,356 13,362c36,23 504,202 517,198c8,-3 126,-49 262,-103zm-1203,-7c7,-31 23,-68 35,-82c22,-25 30,-27 120,-31l96,-4l0,-79l0,-79l-140,0l-141,0l-49,78c-28,42 -50,82 -50,87c0,18 101,176 109,171c4,-3 13,-30 20,-61zm1976,-81l18,-32l-53,-81l-53,-81l-138,0l-139,0l0,80l0,80l85,0c46,0 95,5 109,11c25,12 45,49 66,129l12,44l37,-60c21,-32 46,-73 56,-90zm-754,-809c61,-31 109,-59 107,-63c-2,-5 -37,-51 -78,-105l-75,-96l-245,0l-245,0l-75,96c-41,54 -76,100 -78,105c-2,4 45,32 105,62l108,55l183,0l182,1l111,-55z"/>
   <path fill="#666666" id="svg_4" d="m2240,3268c-34,-18 -47,-58 -31,-96c16,-38 48,-52 120,-52c50,0 61,4 84,28c33,35 34,63 3,98c-20,24 -32,28 -87,31c-40,3 -73,-1 -89,-9z"/>
   <path fill="#666666" id="svg_5" d="m2725,3268c-59,-34 -62,-104 -4,-133c33,-18 118,-20 152,-4c25,11 47,47 47,75c0,9 -13,29 -29,45c-26,25 -36,29 -88,29c-32,0 -67,-6 -78,-12z"/>
   <path fill="#666666" id="svg_6" d="m2420,2633c-33,-12 -50,-37 -50,-73c0,-42 21,-67 66,-76c57,-11 107,71 71,117c-23,30 -57,43 -87,32z"/>
   <path fill="#666666" id="svg_7" d="m2645,2628c-29,-16 -35,-28 -35,-70c0,-28 6,-42 26,-57c35,-28 56,-26 93,5c21,18 31,35 31,54c0,19 -10,36 -31,54c-33,28 -53,32 -84,14z"/>
   <path fill="#666666" id="svg_8" d="m1493,1832c-95,-7 -115,-117 -25,-142c24,-6 400,-10 1114,-10l1076,0l26,31c32,38 33,60 4,93l-23,24l-1065,4c-586,2 -1084,2 -1107,0z"/>
   <path fill="#666666" id="svg_9" d="m1633,1592l-182,-2l-20,-27c-26,-32 -27,-64 -3,-92l17,-22l1113,3l1114,3l19,24c20,24 24,57 11,79c-5,7 -38,17 -73,22c-61,8 -1620,18 -1996,12z"/>
   <path fill="#666666" id="svg_10" d="m2105,1343c-54,-13 -73,-74 -34,-109c27,-24 181,-32 631,-33l316,-1l26,31c31,37 33,58 5,93l-20,26l-452,-1c-249,-1 -461,-4 -472,-6z"/>
  </g>
 </g>
</svg>