<?xml version="1.0" encoding="UTF-8" standalone="no"?>
<svg
   xmlns:dc="http://purl.org/dc/elements/1.1/"
   xmlns:cc="http://creativecommons.org/ns#"
   xmlns:rdf="http://www.w3.org/1999/02/22-rdf-syntax-ns#"
   xmlns:svg="http://www.w3.org/2000/svg"
   xmlns="http://www.w3.org/2000/svg"
   xmlns:sodipodi="http://sodipodi.sourceforge.net/DTD/sodipodi-0.dtd"
   xmlns:inkscape="http://www.inkscape.org/namespaces/inkscape"
   width="560.41058"
   height="642.30505"
   preserveAspectRatio="xMidYMid meet"
   version="1.1"
   id="svg23"
   sodipodi:docname="comida animal gris.svg"
   inkscape:version="0.92.5 (2060ec1f9f, 2020-04-08)">
  <defs
     id="defs27" />
  <sodipodi:namedview
     pagecolor="#ffffff"
     bordercolor="#666666"
     borderopacity="1"
     objecttolerance="10"
     gridtolerance="10"
     guidetolerance="10"
     inkscape:pageopacity="0"
     inkscape:pageshadow="2"
     inkscape:window-width="640"
     inkscape:window-height="480"
     id="namedview25"
     showgrid="false"
     fit-margin-top="0"
     fit-margin-left="0"
     fit-margin-right="0"
     fit-margin-bottom="0"
     inkscape:zoom="0.4609375"
     inkscape:cx="195.80044"
     inkscape:cy="342.77966"
     inkscape:window-x="676"
     inkscape:window-y="97"
     inkscape:window-maximized="0"
     inkscape:current-layer="svg23" />
  <metadata
     id="metadata2">Created by potrace 1.15, written by Peter Selinger 2001-2017<rdf:RDF>
  <cc:Work
     rdf:about="">
    <dc:format>image/svg+xml</dc:format>
    <dc:type
       rdf:resource="http://purl.org/dc/dcmitype/StillImage" />
    <dc:title></dc:title>
  </cc:Work>
</rdf:RDF>
</metadata>
  <g
     id="g7"
     transform="translate(-60.199561,130.30508)">
    <title
       id="title4">background</title>
    <rect
       id="canvas_background"
       height="402"
       width="582"
       y="-1"
       x="-1"
       style="fill:none" />
  </g>
  <g
     id="g21"
     transform="translate(-60.199561,130.30508)">
    <title
       id="title9">Layer 1</title>
    <g
       id="svg_1"
       transform="matrix(0.1,0,0,-0.1,0,512)"
       style="fill:#000000">
      <path
         id="svg_2"
         d="m 786,5089 c -14,-17 -26,-37 -26,-44 0,-8 16,-83 36,-166 l 37,-152 -32,-131 C 687,4116 638,3723 609,3055 595,2724 603,1998 624,1714 658,1264 722,831 801,516 L 831,398 795,245 C 776,161 760,85 760,77 760,68 772,48 786,31 L 812,0 h 1753 1754 l 20,26 c 12,15 21,36 21,47 0,11 -16,89 -35,173 l -36,153 35,143 c 95,384 159,891 187,1473 13,271 7,1043 -11,1300 -34,499 -93,922 -176,1263 l -35,143 36,153 c 19,84 35,162 35,173 0,11 -9,32 -21,47 l -20,26 H 2565 812 Z m 3381,-151 c -3,-13 -11,-49 -18,-80 l -13,-58 H 2560 984 l -17,73 c -10,39 -17,75 -17,80 0,4 725,7 1611,7 h 1611 z m 34,-540 c 105,-530 144,-937 155,-1633 14,-828 -43,-1522 -177,-2138 L 4147,480 H 2559 c -874,0 -1589,3 -1589,8 0,4 -14,68 -30,142 -128,566 -189,1300 -177,2120 9,532 31,869 83,1230 27,191 109,612 125,642 9,17 60,18 1597,16 l 1586,-3 z M 4152,245 c 9,-38 18,-74 18,-78 0,-5 -725,-7 -1611,-6 l -1611,2 6,21 c 3,12 11,47 18,78 l 12,58 1575,-3 1575,-2 z"
         inkscape:connector-curvature="0"
         style="fill:#666666" />
      <path
         id="svg_3"
         d="m 1611,3894 c -50,-35 -271,-404 -271,-453 0,-29 20,-67 90,-171 87,-128 90,-130 212,-141 57,-4 133,-8 171,-9 37,0 67,-3 68,-7 1,-5 4,-99 7,-209 l 7,-202 37,-53 c 41,-59 195,-253 269,-339 l 47,-54 309,-4 310,-4 103,123 c 57,67 136,167 175,220 l 73,97 6,79 c 3,43 8,139 12,214 l 6,136 160,7 c 88,3 169,11 181,18 27,14 32,21 106,128 71,104 91,142 91,172 0,27 -61,142 -151,286 -93,150 -113,172 -155,172 -31,0 -37,-4 -54,-42 -10,-24 -32,-91 -47,-150 l -28,-108 h -81 c -91,0 -125,10 -444,133 -107,41 -210,78 -227,82 -43,9 -99,-8 -358,-107 -260,-99 -281,-106 -379,-110 l -79,-3 -28,107 c -31,118 -59,182 -88,198 -25,13 -22,13 -50,-6 z m 1221,-332 248,-97 v -357 c 0,-199 -4,-359 -9,-362 -5,-3 -73,26 -150,64 l -142,70 h -219 -219 l -142,-70 c -77,-38 -145,-67 -150,-64 -5,3 -9,162 -9,359 0,272 3,356 13,362 36,23 504,202 517,198 8,-3 126,-49 262,-103 z m -1203,-7 c 7,-31 23,-68 35,-82 22,-25 30,-27 120,-31 l 96,-4 v -79 -79 h -140 -141 l -49,78 c -28,42 -50,82 -50,87 0,18 101,176 109,171 4,-3 13,-30 20,-61 z m 1976,-81 18,-32 -53,-81 -53,-81 h -138 -139 v 80 80 h 85 c 46,0 95,5 109,11 25,12 45,49 66,129 l 12,44 37,-60 c 21,-32 46,-73 56,-90 z m -754,-809 c 61,-31 109,-59 107,-63 -2,-5 -37,-51 -78,-105 l -75,-96 h -245 -245 l -75,96 c -41,54 -76,100 -78,105 -2,4 45,32 105,62 l 108,55 h 183 l 182,1 z"
         inkscape:connector-curvature="0"
         style="fill:#666666" />
      <path
         id="svg_4"
         d="m 2240,3268 c -34,-18 -47,-58 -31,-96 16,-38 48,-52 120,-52 50,0 61,4 84,28 33,35 34,63 3,98 -20,24 -32,28 -87,31 -40,3 -73,-1 -89,-9 z"
         inkscape:connector-curvature="0"
         style="fill:#666666" />
      <path
         id="svg_5"
         d="m 2725,3268 c -59,-34 -62,-104 -4,-133 33,-18 118,-20 152,-4 25,11 47,47 47,75 0,9 -13,29 -29,45 -26,25 -36,29 -88,29 -32,0 -67,-6 -78,-12 z"
         inkscape:connector-curvature="0"
         style="fill:#666666" />
      <path
         id="svg_6"
         d="m 2420,2633 c -33,-12 -50,-37 -50,-73 0,-42 21,-67 66,-76 57,-11 107,71 71,117 -23,30 -57,43 -87,32 z"
         inkscape:connector-curvature="0"
         style="fill:#666666" />
      <path
         id="svg_7"
         d="m 2645,2628 c -29,-16 -35,-28 -35,-70 0,-28 6,-42 26,-57 35,-28 56,-26 93,5 21,18 31,35 31,54 0,19 -10,36 -31,54 -33,28 -53,32 -84,14 z"
         inkscape:connector-curvature="0"
         style="fill:#666666" />
      <path
         id="svg_8"
         d="m 1493,1832 c -95,-7 -115,-117 -25,-142 24,-6 400,-10 1114,-10 h 1076 l 26,31 c 32,38 33,60 4,93 l -23,24 -1065,4 c -586,2 -1084,2 -1107,0 z"
         inkscape:connector-curvature="0"
         style="fill:#666666" />
      <path
         id="svg_9"
         d="m 1633,1592 -182,-2 -20,-27 c -26,-32 -27,-64 -3,-92 l 17,-22 1113,3 1114,3 19,24 c 20,24 24,57 11,79 -5,7 -38,17 -73,22 -61,8 -1620,18 -1996,12 z"
         inkscape:connector-curvature="0"
         style="fill:#666666" />
      <path
         id="svg_10"
         d="m 2105,1343 c -54,-13 -73,-74 -34,-109 27,-24 181,-32 631,-33 l 316,-1 26,31 c 31,37 33,58 5,93 l -20,26 -452,-1 c -249,-1 -461,-4 -472,-6 z"
         inkscape:connector-curvature="0"
         style="fill:#666666" />
    </g>
  </g>
  <g
     transform="matrix(5.2035212,0,0,5.2035212,343.17047,-42.430426)"
     id="g10">
    <title
       id="title7">Layer 1</title>
    <path
       style="fill:#666666"
       inkscape:connector-curvature="0"
       id="svg_1-3"
       d="m 20.921,31.898 c 2.758,0 5.367,-0.956 7.458,-2.704 l 1.077,1.077 -0.358,0.358 c -0.188,0.188 -0.293,0.442 -0.293,0.707 0,0.265 0.105,0.52 0.293,0.707 l 8.257,8.256 c 0.195,0.195 0.451,0.293 0.707,0.293 0.256,0 0.512,-0.098 0.707,-0.293 l 2.208,-2.208 c 0.188,-0.188 0.293,-0.442 0.293,-0.707 0,-0.265 -0.105,-0.52 -0.293,-0.707 L 32.72,28.421 c -0.391,-0.391 -1.023,-0.391 -1.414,0 l -0.436,0.436 -1.073,-1.073 c 1.793,-2.104 2.777,-4.743 2.777,-7.537 0,-3.112 -1.212,-6.038 -3.413,-8.239 -2.201,-2.201 -5.127,-3.413 -8.239,-3.413 -3.112,0 -6.038,1.212 -8.238,3.413 -2.201,2.201 -3.413,5.126 -3.413,8.239 0,3.112 1.212,6.038 3.413,8.238 2.199,2.202 5.125,3.413 8.237,3.413 z m 17.934,5.487 -0.794,0.793 -6.843,-6.842 0.794,-0.793 z M 14.097,13.423 c 1.823,-1.823 4.246,-2.827 6.824,-2.827 2.578,0 5.002,1.004 6.825,2.827 1.823,1.823 2.827,4.247 2.827,6.825 0,2.578 -1.004,5.001 -2.827,6.824 -1.823,1.823 -4.247,2.827 -6.825,2.827 -2.578,0 -5.001,-1.004 -6.824,-2.827 -1.823,-1.823 -2.827,-4.247 -2.827,-6.824 0,-2.579 1.003,-5.002 2.827,-6.825 z" />
  </g>
</svg>
