<?xml version="1.0" encoding="UTF-8" standalone="no"?>
<!-- Created with Inkscape (http://www.inkscape.org/) -->

<svg
   xmlns:dc="http://purl.org/dc/elements/1.1/"
   xmlns:cc="http://creativecommons.org/ns#"
   xmlns:rdf="http://www.w3.org/1999/02/22-rdf-syntax-ns#"
   xmlns:svg="http://www.w3.org/2000/svg"
   xmlns="http://www.w3.org/2000/svg"
   xmlns:sodipodi="http://sodipodi.sourceforge.net/DTD/sodipodi-0.dtd"
   xmlns:inkscape="http://www.inkscape.org/namespaces/inkscape"
   width="203.46466mm"
   height="95.042374mm"
   viewBox="0 0 203.46466 95.042374"
   version="1.1"
   id="svg8"
   inkscape:version="0.92.4 5da689c313, 2019-01-14"
   sodipodi:docname="fondo.svg">
  <defs
     id="defs2" />
  <sodipodi:namedview
     id="base"
     pagecolor="#ffffff"
     bordercolor="#666666"
     borderopacity="1.0"
     inkscape:pageopacity="0.0"
     inkscape:pageshadow="2"
     inkscape:zoom="0.83957439"
     inkscape:cx="380.70565"
     inkscape:cy="220.87817"
     inkscape:document-units="mm"
     inkscape:current-layer="layer1"
     showgrid="false"
     fit-margin-top="0"
     fit-margin-left="0"
     fit-margin-right="0"
     fit-margin-bottom="0"
     inkscape:window-width="1366"
     inkscape:window-height="722"
     inkscape:window-x="0"
     inkscape:window-y="22"
     inkscape:window-maximized="1" />
  <metadata
     id="metadata5">
    <rdf:RDF>
      <cc:Work
         rdf:about="">
        <dc:format>image/svg+xml</dc:format>
        <dc:type
           rdf:resource="http://purl.org/dc/dcmitype/StillImage" />
        <dc:title></dc:title>
      </cc:Work>
    </rdf:RDF>
  </metadata>
  <g
     inkscape:label="Capa 1"
     inkscape:groupmode="layer"
     id="layer1"
     transform="translate(-3.3450894,-71.196956)">
    <path
       style="fill:#422c10;fill-opacity:1;stroke-width:0.32546115"
       d="m 1.9891051,121.51144 v -5.79053 l 5.1962311,-0.25471 2.5796874,-0.11455 0.083315,-2.00066 c 0.045823,-1.10036 0.00968,-2.59455 -0.080311,-3.3204 l -0.1636265,-1.31975 -0.7998849,1.01842 c -1.3570974,1.72787 -2.384711,1.27558 -2.68895,-1.18349 -0.1434948,-1.15981 0.3436851,-12.873969 0.854672,-20.550419 0.3582409,-5.38177 0.9517492,-6.45183 4.1466038,-7.47599 5.559601,-1.78222 34.831777,0.60463 42.304431,3.44949 5.587148,2.12705 10.232837,7.76571 12.763036,15.491 0.890191,2.717969 1.1121,3.078219 3.142568,5.101499 2.486051,2.47728 2.626349,2.70543 2.083149,3.38756 -0.216678,0.27211 -0.393962,0.88298 -0.393962,1.3575 0,0.93907 -0.506989,2.23773 -1.530154,3.91954 -0.858589,1.41128 -0.620448,2.18046 0.784127,2.5327 0.628597,0.15764 1.433322,0.51375 1.788282,0.7914 0.559064,0.43725 0.700608,0.40201 1.058333,-0.26347 0.361675,-0.67284 1.004345,-0.82162 5.175454,-1.19821 2.619374,-0.23648 4.970859,-0.40588 5.22552,-0.37645 0.254662,0.0294 1.117865,0.0391 1.918229,0.0214 3.650451,-0.0807 4.961954,-0.0194 7.805209,0.36486 1.673489,0.22619 3.412384,0.52748 3.86421,0.66957 0.682239,0.21451 0.914,0.0803 1.367123,-0.79126 0.691214,-1.32963 0.958869,-3.69818 0.730475,-6.46414 l -0.178435,-2.16095 -1.767207,-1.45642 c -4.30692,-3.54953 -5.616477,-4.73727 -6.826488,-6.191459 -3.792313,-4.55764 -4.848344,-5.11852 -10.545366,-5.60081 -5.309232,-0.44945 -9.431983,-1.14386 -9.855941,-1.6601 -0.436784,-0.53185 -0.09214,-1.47372 1.652268,-4.5155 1.783199,-3.1094 2.067065,-3.94779 2.236613,-6.6057 l 0.140456,-2.20191 2.778125,0.13799 c 1.527969,0.076 3.611563,0.30293 4.630208,0.50444 5.949569,1.17689 32.790695,1.32213 57.057395,0.30873 l 10.22614,-0.42705 2.20928,1.73965 2.20927,1.73964 -0.0383,4.60398 c -0.0211,2.5322 -0.18475,6.15468 -0.3637,8.04997 -0.26137,2.76828 -0.25888,3.75075 0.0127,4.9957 0.1921,0.880739 0.4062,4.664189 0.49598,8.764579 l 0.15798,7.21488 7.77594,-0.15883 c 4.27677,-0.0873 8.44395,-0.26901 9.26042,-0.40366 1.44018,-0.23753 1.48209,-0.27864 1.40465,-1.37788 -0.1567,-2.22411 -1.29939,-5.44292 -2.08897,-5.88434 -2.2368,-1.25052 -3.85088,-2.87367 -6.07228,-6.10642 -1.70645,-2.483359 -2.58648,-4.106859 -2.98392,-5.504759 -0.45407,-1.59715 -0.68844,-1.98265 -1.20533,-1.98265 -0.97075,0 -2.02122,-0.85591 -1.93017,-1.57267 0.11627,-0.91538 10.93173,-1.12791 13.17357,-0.25889 0.83211,0.32256 2.68972,0.70664 4.12804,0.85349 2.51798,0.25707 18.51874,-0.3941 21.55635,-0.87727 1.3848,-0.22028 1.53907,-0.15503 2.42881,1.02702 0.52255,0.69422 1.02512,1.77909 1.11681,2.41081 0.23033,1.58676 -0.32306,7.323029 -0.93197,9.660509 -0.56007,2.15001 -0.94042,6.58225 -0.6929,8.07448 0.2123,1.27991 1.93843,1.83427 5.86095,1.88226 1.60073,0.0195 4.91417,-0.0549 5.16883,0.0653 0.4119,0.19452 -0.36311,1.04438 -0.81841,5.98552 l 0.0934,47.56476 -102.33978,-0.0934 -104.3487849,0.14017 z M 27.888981,116.5526 c 0.235461,-0.93709 0.370463,-1.00085 2.118616,-1.00085 1.026922,0 2.255561,-0.24558 2.73031,-0.54573 1.261954,-0.79783 2.986347,-3.98614 4.188585,-7.74446 1.742326,-5.44669 1.230093,-6.66894 -2.687511,-6.41277 -1.620245,0.10592 -2.548265,0.38161 -3.319598,0.98604 -0.588852,0.46144 -1.495738,0.95965 -2.015302,1.10714 -0.812352,0.23059 -1.075169,0.0947 -1.876437,-0.96975 -1.170778,-1.55541 -3.648446,-3.235479 -4.768602,-3.233519 -1.368053,0.003 -2.421001,1.267279 -3.319328,3.987429 -1.5635,4.73431 -1.38034,7.55488 0.710195,10.93662 1.573171,2.54485 2.416502,3.1781 4.667197,3.50462 3.299882,0.47872 3.296994,0.47922 3.571875,-0.61477 z m 108.025449,0.44531 c 0.32231,-0.30557 1.38965,-0.64513 2.37188,-0.75459 2.14083,-0.23857 2.86649,-0.88205 3.60785,-3.19929 0.97554,-3.04925 0.50557,-8.8584 -1.0198,-12.60535 -0.50132,-1.231459 -0.61367,-1.301129 -2.09792,-1.301129 -0.95293,0 -3.23663,0.63381 -5.82052,1.615409 l -4.2523,1.61544 -8.40471,-0.26959 c -9.55181,-0.30636 -10.90753,-0.0965 -12.18874,1.88633 -1.05161,1.62753 -2.79304,8.23092 -2.81415,10.67109 -0.0156,1.79737 0.0181,1.88931 0.64504,1.76084 1.44572,-0.29623 2.57027,-0.19542 3.76181,0.33723 1.28003,0.57222 1.86988,0.35283 1.31378,-0.4886 -0.1722,-0.26056 -0.31309,-0.59536 -0.31309,-0.74398 0,-0.56693 1.6398,-0.72658 3.73995,-0.36416 1.85609,0.32033 2.25337,0.2821 2.64525,-0.25453 0.4222,-0.57815 0.55297,-0.55338 1.54847,0.29321 0.92644,0.78787 1.16723,0.84916 1.6274,0.41434 0.78267,-0.7396 2.42317,-0.66264 3.24507,0.15222 0.57989,0.57493 1.06043,0.66081 2.61719,0.46774 1.44411,-0.1791 2.03152,-0.0958 2.42047,0.34305 0.68029,0.76765 2.11223,0.73377 3.52639,-0.0834 1.10832,-0.64045 1.17146,-0.63442 1.86093,0.17793 0.85378,1.00597 1.20486,1.06446 1.97975,0.32981 z m -76.353456,-1.29097 c 0.141877,-0.64587 -2.140604,-4.74572 -3.157014,-5.67072 -1.059804,-0.9645 -5.34589,-1.57719 -5.927129,-0.84729 -0.494433,0.62089 -0.459717,3.5782 0.06532,5.56371 l 0.428167,1.61917 4.246417,-0.10985 c 2.822265,-0.0729 4.279228,-0.25912 4.344244,-0.5551 z m 123.241546,-0.0424 c 1.47691,-0.11 3.5346,0.0151 4.65754,0.28341 1.87252,0.44734 2.08699,0.42247 3.1,-0.35951 1.31097,-1.01198 1.7379,-2.08528 1.52203,-3.82636 -0.19568,-1.57835 -1.76325,-4.72388 -2.66339,-5.34445 -0.44263,-0.30517 -1.10148,-0.33564 -2.04695,-0.0947 -0.76682,0.19541 -3.29437,0.46416 -5.61677,0.59721 -5.53228,0.31692 -6.08237,0.85698 -5.90954,5.80188 l 0.0779,2.22909 1.32292,0.69887 c 0.79052,0.41762 1.64236,0.60086 2.11667,0.45529 0.43656,-0.13391 1.98437,-0.33229 3.43958,-0.44073 z m -136.280536,-0.0637 c 0.269659,-0.6602 -0.954375,-7.05267 -1.65759,-8.65672 -1.070391,-2.44157 -1.449859,-2.61561 -1.874711,-0.85979 -0.114427,0.47289 -1.207402,2.0431 -2.428832,3.48937 -2.253642,2.66848 -3.017555,4.33196 -2.410894,5.2499 0.473517,0.7165 8.10737,1.4252 8.372027,0.77724 z"
       id="path828"
       inkscape:connector-curvature="0"
       sodipodi:nodetypes="ccccsccscsscsccscsccccccccsccccccccccsccccccscccccscsccccccccccscccccscscccccscccccccsccccccccscscccscccccccccccccccccccccccccccccccc" />
  </g>
</svg>
