<?xml version="1.0" standalone="no"?>
<!DOCTYPE svg PUBLIC "-//W3C//DTD SVG 20010904//EN"
 "http://www.w3.org/TR/2001/REC-SVG-20010904/DTD/svg10.dtd">
<svg version="1.0" xmlns="http://www.w3.org/2000/svg"
 width="512.000000pt" height="512.000000pt" viewBox="0 0 512.000000 512.000000"
 preserveAspectRatio="xMidYMid meet">
<metadata>
Created by potrace 1.15, written by Peter Selinger 2001-2017
</metadata>
<g transform="translate(0.000000,512.000000) scale(0.100000,-0.100000)"
fill="#000000" stroke="none">
<path d="M1040 4881 l0 -81 90 0 c92 0 145 -14 182 -47 28 -25 22 -30 -37 -38
-115 -14 -157 -45 -446 -334 -317 -316 -325 -328 -317 -472 4 -70 11 -96 34
-139 32 -59 86 -109 153 -142 44 -22 61 -23 336 -28 319 -6 327 -7 400 -71 21
-19 48 -54 59 -79 20 -43 21 -65 26 -546 l5 -501 34 -50 c41 -60 87 -91 157
-106 62 -13 127 0 175 34 l28 20 42 -28 c37 -24 52 -28 113 -28 80 0 128 19
175 67 63 65 66 77 71 373 l5 270 57 3 57 3 71 -65 c39 -36 84 -73 100 -83 29
-17 30 -20 30 -95 l0 -78 80 0 80 0 0 43 0 42 120 0 120 0 0 -42 0 -43 80 0
80 0 0 78 c0 75 1 78 30 95 16 10 61 47 100 82 70 65 70 65 130 65 l60 0 0
-252 c0 -155 4 -269 11 -293 24 -87 92 -148 185 -168 62 -13 127 0 175 34 l28
20 38 -25 c79 -52 204 -42 274 21 21 19 49 51 61 71 l23 37 0 810 c0 758 -1
814 -18 870 -19 59 -88 177 -120 204 -33 26 -19 34 56 29 108 -7 176 -49 223
-138 18 -32 19 -69 22 -507 l3 -473 80 0 80 0 -3 488 -3 488 -38 76 c-44 91
-102 146 -197 192 l-65 31 -1153 5 -1152 5 26 39 c60 88 104 245 104 372 l0
64 -74 0 c-176 0 -330 -63 -471 -192 -70 -64 -92 -63 -124 1 -31 64 -92 126
-155 159 -45 22 -66 26 -173 30 l-123 4 0 -81z m946 -118 c-4 -16 -22 -61 -41
-101 -27 -57 -56 -95 -135 -176 -55 -56 -100 -106 -100 -109 0 -4 23 -29 50
-57 53 -53 67 -55 100 -16 10 13 42 16 195 16 l183 0 4 -117 c3 -89 8 -128 23
-158 27 -58 222 -249 271 -266 28 -10 92 -14 224 -14 201 0 210 2 275 62 46
42 71 91 84 163 l11 65 132 132 133 133 101 0 101 0 5 -77 c6 -103 29 -146
140 -259 87 -89 89 -92 99 -155 22 -137 110 -217 250 -227 l69 -5 0 -571 c0
-555 -1 -573 -20 -593 -27 -29 -56 -37 -89 -23 -45 18 -51 46 -51 223 0 206
-10 271 -54 364 -43 90 -119 169 -222 230 -126 75 -190 171 -201 303 l-6 70
-78 0 -79 0 0 -50 c0 -110 53 -254 124 -337 21 -24 36 -52 36 -67 0 -25 -2
-26 -59 -26 -94 0 -149 -23 -235 -101 -91 -82 -150 -114 -240 -130 -126 -24
-247 17 -362 121 -75 69 -151 110 -201 110 l-32 0 19 33 c44 76 62 157 68 305
l5 142 -80 0 -80 0 -5 -137 c-5 -145 -13 -172 -77 -276 -11 -19 -33 -65 -48
-103 -26 -68 -26 -75 -30 -339 -2 -151 -9 -282 -14 -297 -12 -30 -58 -53 -89
-43 -11 4 -30 16 -40 28 -19 20 -20 38 -20 594 l0 573 -80 0 -80 0 0 -573 c0
-562 0 -574 -20 -595 -38 -40 -93 -37 -127 7 -9 12 -12 129 -13 472 0 263 -4
479 -10 509 -32 167 -170 303 -336 330 -32 6 -132 10 -222 10 l-163 0 36 52
c19 29 35 56 35 60 0 12 -120 89 -130 83 -5 -3 -34 -44 -64 -90 -31 -47 -60
-85 -64 -85 -5 0 -22 10 -37 22 -49 38 -69 120 -45 185 6 15 122 140 258 276
270 272 292 288 402 295 l65 4 -47 -49 c-27 -27 -48 -52 -48 -56 0 -9 98 -107
106 -107 4 0 86 78 183 174 183 180 220 209 311 244 75 29 84 28 76 -5z m1097
-525 c-93 -96 -112 -128 -123 -211 -14 -99 -20 -102 -210 -102 l-160 0 -92 93
-93 92 -3 105 -4 105 383 0 383 0 -81 -82z m825 50 c111 -41 205 -150 237
-273 8 -34 15 -102 15 -158 l0 -99 -56 4 c-72 6 -92 26 -104 105 -12 85 -30
115 -138 226 l-96 97 -4 66 -4 67 48 -8 c26 -4 72 -16 102 -27z m-168 -1274
c23 -25 54 -71 68 -102 26 -54 27 -66 30 -245 4 -208 -1 -238 -49 -257 -37
-16 -82 1 -98 36 -13 30 -16 614 -2 614 5 0 27 -21 51 -46z"/>
<path d="M1120 4240 l0 -80 80 0 80 0 0 80 0 80 -80 0 -80 0 0 -80z"/>
<path d="M480 2398 c0 -46 7 -114 15 -152 17 -82 68 -196 101 -227 13 -12 24
-29 24 -37 0 -28 -103 -274 -124 -297 -14 -15 -54 -32 -114 -49 -107 -30 -151
-59 -190 -125 -36 -62 -38 -174 -4 -239 31 -58 78 -89 244 -162 79 -34 166
-72 193 -84 28 -13 60 -26 73 -30 l22 -7 0 -308 c0 -346 5 -382 64 -443 52
-53 100 -73 181 -73 59 0 76 4 113 28 l42 27 42 -27 c36 -24 52 -28 112 -28
80 0 129 19 178 69 56 55 62 82 68 308 3 128 9 211 16 218 8 8 34 1 94 -25
265 -113 560 -124 821 -30 41 15 81 29 91 32 15 4 17 -15 20 -205 l3 -209 34
-50 c18 -27 48 -59 67 -71 76 -50 186 -53 256 -7 l38 25 42 -27 c37 -24 54
-28 113 -28 79 0 128 19 177 69 65 65 63 35 66 755 2 440 -1 670 -8 705 -32
157 -152 296 -305 357 l-60 24 -915 5 c-503 3 -916 7 -917 8 -208 283 -362
385 -591 391 l-82 2 0 -83z m253 -122 c88 -42 102 -54 216 -189 51 -59 110
-120 133 -135 l42 -27 925 -5 926 -5 49 -29 49 -30 -34 -25 c-55 -41 -99 -92
-126 -146 -21 -40 -27 -69 -31 -147 l-5 -98 82 0 81 0 0 63 c0 98 14 132 71
177 28 22 55 40 59 40 25 0 30 -128 30 -721 0 -681 2 -660 -60 -674 -36 -8
-85 17 -94 47 -3 13 -6 100 -6 194 0 194 -9 256 -47 333 -33 63 -80 107 -222
202 -160 108 -191 141 -205 222 l-7 37 -79 0 c-92 0 -90 3 -65 -95 18 -68 57
-134 109 -184 33 -32 36 -39 36 -95 l0 -61 -53 -24 c-258 -117 -507 -129 -772
-35 -100 36 -98 34 -78 80 13 31 18 78 21 227 l4 187 -81 0 -81 0 0 -152 c0
-84 -5 -170 -10 -190 -6 -20 -29 -58 -51 -85 -22 -26 -52 -73 -66 -103 -26
-53 -27 -63 -33 -263 -5 -194 -6 -210 -25 -223 -34 -25 -63 -27 -97 -7 l-33
19 -3 382 -2 382 -80 0 -80 0 0 -365 c0 -249 -4 -372 -11 -389 -26 -55 -112
-55 -138 0 -7 17 -11 137 -11 377 l0 352 -148 62 c-395 167 -412 176 -412 234
0 44 36 74 115 94 180 47 188 57 319 383 65 161 68 131 -21 241 -36 44 -63 98
-87 179 -10 30 2 28 87 -12z m2088 -1415 c21 -24 43 -60 49 -80 14 -50 13
-384 -1 -415 -26 -55 -112 -55 -138 0 -7 17 -11 117 -11 300 l0 275 31 -18
c17 -10 49 -38 70 -62z"/>
<path d="M880 1680 l0 -80 80 0 80 0 0 80 0 80 -80 0 -80 0 0 -80z"/>
<path d="M3875 2068 c-82 -31 -158 -107 -180 -182 l-12 -41 -82 -3 -81 -3 0
-79 0 -80 85 0 c73 0 86 -3 91 -17 3 -10 18 -52 35 -94 29 -75 29 -77 29 -285
0 -154 4 -225 15 -267 35 -135 121 -247 243 -317 l61 -35 1 -252 0 -253 80 0
80 0 0 240 0 240 80 0 80 0 0 -240 0 -240 80 0 80 0 0 249 0 249 84 41 c134
65 237 182 290 330 19 51 21 84 24 394 l3 337 -79 0 -80 0 -6 -43 c-16 -103
-83 -195 -179 -244 -45 -23 -67 -27 -174 -31 -138 -5 -175 4 -192 46 -5 15
-12 108 -13 207 -4 201 -14 239 -80 302 -66 64 -208 100 -283 71z m136 -163
c62 -32 69 -60 69 -260 0 -202 8 -231 71 -293 65 -64 77 -67 259 -67 189 0
235 11 334 76 l58 39 -4 -143 c-4 -116 -9 -152 -27 -200 -43 -110 -132 -195
-245 -234 -40 -14 -82 -18 -201 -18 -150 0 -151 0 -217 33 -76 37 -120 82
-157 162 -25 54 -26 60 -29 295 l-3 240 -34 80 c-62 147 -56 240 18 285 39 24
68 25 108 5z"/>
</g>
</svg>
