<?xml version="1.0" encoding="UTF-8" standalone="no"?>
<svg
   xmlns:dc="http://purl.org/dc/elements/1.1/"
   xmlns:cc="http://creativecommons.org/ns#"
   xmlns:rdf="http://www.w3.org/1999/02/22-rdf-syntax-ns#"
   xmlns:svg="http://www.w3.org/2000/svg"
   xmlns="http://www.w3.org/2000/svg"
   xmlns:sodipodi="http://sodipodi.sourceforge.net/DTD/sodipodi-0.dtd"
   xmlns:inkscape="http://www.inkscape.org/namespaces/inkscape"
   width="500"
   height="500"
   version="1.1"
   id="svg25"
   sodipodi:docname="gestion animales.svg"
   inkscape:version="0.92.5 (2060ec1f9f, 2020-04-08)">
  <metadata
     id="metadata31">
    <rdf:RDF>
      <cc:Work
         rdf:about="">
        <dc:format>image/svg+xml</dc:format>
        <dc:type
           rdf:resource="http://purl.org/dc/dcmitype/StillImage" />
        <dc:title />
      </cc:Work>
    </rdf:RDF>
  </metadata>
  <defs
     id="defs29" />
  <sodipodi:namedview
     pagecolor="#ffffff"
     bordercolor="#666666"
     borderopacity="1"
     objecttolerance="10"
     gridtolerance="10"
     guidetolerance="10"
     inkscape:pageopacity="0"
     inkscape:pageshadow="2"
     inkscape:window-width="1920"
     inkscape:window-height="1017"
     id="namedview27"
     showgrid="false"
     inkscape:pagecheckerboard="true"
     fit-margin-top="0"
     fit-margin-left="0"
     fit-margin-right="0"
     fit-margin-bottom="0"
     inkscape:zoom="0.59"
     inkscape:cx="-306.68512"
     inkscape:cy="196.03483"
     inkscape:window-x="-8"
     inkscape:window-y="-8"
     inkscape:window-maximized="1"
     inkscape:current-layer="svg25" />
  <!-- Created with Method Draw - http://github.com/duopixel/Method-Draw/ -->
  <g
     id="g23"
     transform="matrix(1.0609852,0,0,1.0609852,-109.66642,30.660367)"
     style="fill:#ffffff;fill-opacity:1">
    <title
       id="title10">Layer 1</title>
    <g
       stroke="null"
       id="svg_8"
       style="fill:#ffffff;fill-opacity:1" />
    <g
       stroke="null"
       id="svg_18"
       style="fill:#ffffff;fill-opacity:1">
      <path
         stroke="null"
         id="svg_13"
         d="M 569.66295,387.37032 H 555.49918 V 287.08934 c 0,-2.39241 -2.10286,-4.33197 -4.69808,-4.33197 -2.59523,0 -4.69809,1.93956 -4.69809,4.33197 v 82.23112 h -15.30196 v -25.74921 c 0,-5.57322 -4.91733,-10.10734 -10.96157,-10.10734 h -79.9482 c -2.59522,0 -4.69808,1.93956 -4.69808,4.33196 0,2.3924 2.10286,4.33197 4.69808,4.33197 h 32.11734 v 45.24306 h -6.55038 v -7.63293 c 0,-2.3924 -2.10286,-4.33196 -4.69808,-4.33196 -2.59522,0 -4.69808,1.93956 -4.69808,4.33196 v 7.63293 h -5.63645 v -7.63293 c 0,-2.3924 -2.10286,-4.33196 -4.69808,-4.33196 -2.59522,0 -4.69808,1.93956 -4.69808,4.33196 v 7.63293 h -5.63645 v -7.63293 c 0,-2.3924 -2.10286,-4.33196 -4.69808,-4.33196 -2.59522,0 -4.69808,1.93956 -4.69808,4.33196 v 7.63293 h -5.63645 v -7.63293 c 0,-2.3924 -2.10286,-4.33196 -4.69808,-4.33196 -2.59522,0 -4.69808,1.93956 -4.69808,4.33196 v 7.63293 h -10.15287 v -43.79965 c 0,-0.79593 0.70221,-1.44341 1.5654,-1.44341 h 15.17293 c 2.59522,0 4.69808,-1.93957 4.69808,-4.33197 0,-2.3924 -2.10286,-4.33196 -4.69808,-4.33196 h -15.17293 c -6.04424,0 -10.96156,4.53412 -10.96156,10.10734 v 25.74921 h -15.30197 v -25.74921 c 0,-5.57322 -4.91733,-10.10734 -10.96157,-10.10734 h -24.3417 c -7.77063,0 -14.09299,-5.8291 -14.09299,-12.99475 v -30.36131 h 30.1905 c 15.3953,0 27.91976,-11.54844 27.91976,-25.74401 v -1.60918 c 0,-1.77784 -0.19669,-3.51409 -0.57066,-5.19143 4.46694,-7.21128 7.0346,-15.54483 7.0346,-24.42767 0,-2.3924 -2.10287,-4.33197 -4.69809,-4.33197 -2.59522,0 -4.69808,1.93957 -4.69808,4.33197 0,4.95288 -0.97156,9.69841 -2.73553,14.09217 -5.10275,-6.20222 -13.17719,-10.21766 -22.25263,-10.21766 h -38.52051 c -9.07544,0 -17.14988,4.01487 -22.25262,10.21766 -1.76398,-4.39434 -2.73554,-9.13929 -2.73554,-14.09217 v -45.55092 h 88.49621 v 25.09075 c 0,2.3924 2.10286,4.33197 4.69808,4.33197 2.59522,0 4.69808,-1.93957 4.69808,-4.33197 v -3.05779 c 0.90266,0.0797 1.81346,0.13516 2.73867,0.13516 8.11954,0 15.71477,-3.20277 21.05868,-8.49066 h 91.86755 c 21.5855,0 39.1463,16.19289 39.1463,36.09626 v 29.32221 c 0,2.3924 2.10286,4.33197 4.69808,4.33197 2.59522,0 4.69808,-1.93957 4.69808,-4.33197 v -29.32221 c 0,-24.68066 -21.77655,-44.76019 -48.54246,-44.76019 h -86.02815 c 0.0175,-0.0433 0.0376,-0.0861 0.0551,-0.12996 1.23215,-3.06126 0.75357,-6.49795 -1.27851,-9.19243 -2.05713,-2.72683 -5.43349,-4.35507 -9.03034,-4.35507 H 391.29178 379.3217 v -10.08193 c 0,-6.54705 -5.77677,-11.87363 -12.87776,-11.87363 h -0.61388 c -7.101,0 -12.87776,5.32658 -12.87776,11.87363 v 10.08251 h -30.61082 v -10.08251 c 0,-6.54705 -5.77677,-11.87363 -12.87776,-11.87363 h -0.61388 c -7.101,0 -12.87776,5.32658 -12.87776,11.87363 v 10.08251 h -11.96946 -19.38178 c -3.59685,0 -6.97321,1.62824 -9.03034,4.35507 -2.03208,2.69448 -2.51065,6.13059 -1.27913,9.19185 4.15874,10.33838 14.99001,17.28513 26.95258,17.28513 0.92521,0 1.83601,-0.0549 2.73867,-0.13516 v 23.51796 c 0,8.88284 2.56766,17.21639 7.0346,24.42709 -0.37397,1.67734 -0.57066,3.41359 -0.57066,5.19143 v 1.60918 c 0,13.86576 11.95129,25.19992 26.85423,25.71917 v 30.38673 66.90116 h -5.94651 v -7.63293 c 0,-2.3924 -2.10287,-4.33197 -4.69809,-4.33197 -2.59522,0 -4.69808,1.93957 -4.69808,4.33197 v 7.63293 h -3.75721 v -7.63293 c 0,-2.3924 -2.10286,-4.33197 -4.69808,-4.33197 -2.59522,0 -4.69809,1.93957 -4.69809,4.33197 v 7.63293 H 282.716 c -2.59522,0 -4.69808,1.93956 -4.69808,4.33196 0,2.3924 2.10286,4.33197 4.69808,4.33197 h 286.94696 c 2.59522,0 4.69808,-1.93957 4.69808,-4.33197 0,-2.3924 -2.10286,-4.33254 -4.69809,-4.33254 z M 391.29181,187.58522 h 19.38178 c 0.75358,0 1.17139,0.44648 1.31672,0.63882 0.2017,0.26743 0.39777,0.69773 0.18291,1.23143 -2.7988,6.9583 -10.0896,11.63393 -18.14274,11.63393 -0.93022,0 -1.84353,-0.0641 -2.73867,-0.18252 z m -28.94332,-18.74644 c 0,-1.76976 1.56165,-3.2097 3.4816,-3.2097 h 0.61388 c 1.91932,0 3.48159,1.43994 3.48159,3.2097 v 10.0825 h -4.63481 -2.94163 v -10.0825 z m -56.97959,0 c 0,-1.76976 1.56164,-3.2097 3.48159,-3.2097 h 0.61389 c 1.91932,0 3.48159,1.43994 3.48159,3.2097 v 10.0825 h -2.94163 -4.63481 v -10.0825 z m -21.36625,32.06752 c -0.89514,0.11783 -1.80845,0.18252 -2.73867,0.18252 -8.05251,0 -15.34393,-4.67505 -18.14336,-11.6345 -0.21424,-0.53255 -0.0182,-0.96343 0.18353,-1.23086 0.1447,-0.19234 0.56252,-0.63882 1.31672,-0.63882 h 19.38178 z m 15.86073,63.45754 v -1.60918 c 0,-9.4177 8.30996,-17.08008 18.52359,-17.08008 h 38.52052 c 10.21426,0 18.5236,7.66238 18.5236,17.08008 v 1.60918 c 0,9.41769 -8.30997,17.08008 -18.5236,17.08008 h -38.52052 c -10.21425,0 -18.52359,-7.66239 -18.52359,-17.08008 z m 42.15557,123.00648 h -15.30196 v -9.38593 h 15.30196 z m 6.3e-4,-18.04986 H 326.71699 V 337.7849 c 3.92822,2.72509 8.80921,4.34294 14.09299,4.34294 h 1.2096 z m 24.69813,18.04986 h -15.30197 v -45.24306 h 13.73657 c 0.86319,0 1.5654,0.64748 1.5654,1.44341 z m 24.6975,0 h -15.30196 v -9.38593 h 15.30196 z m 105.29154,0 h -15.30197 v -9.38593 h 15.30197 z m 0,-18.04986 h -15.30197 v -27.19262 h 15.30197 z m 24.69813,18.04986 h -15.30197 v -45.24306 h 13.73657 c 0.86319,0 1.5654,0.64748 1.5654,1.44341 z m 24.69813,0 h -15.30196 v -9.38593 h 15.30196 z"
         inkscape:connector-curvature="0"
         style="fill:#ffffff;fill-opacity:1" />
      <path
         stroke="null"
         id="svg_14"
         d="m 312.17235,215.30749 v 8.70899 c 0,2.3924 2.10286,4.33197 4.69808,4.33197 2.59522,0 4.69809,-1.93957 4.69809,-4.33197 v -8.70899 c 0,-2.3924 -2.10287,-4.33196 -4.69809,-4.33196 -2.59522,0 -4.69808,1.93956 -4.69808,4.33196 z"
         inkscape:connector-curvature="0"
         style="fill:#ffffff;fill-opacity:1" />
      <path
         stroke="null"
         id="svg_15"
         d="m 353.72595,215.30749 v 8.70899 c 0,2.3924 2.10286,4.33197 4.69808,4.33197 2.59522,0 4.69808,-1.93957 4.69808,-4.33197 v -8.70899 c 0,-2.3924 -2.10286,-4.33196 -4.69808,-4.33196 -2.59522,0 -4.69808,1.93956 -4.69808,4.33196 z"
         inkscape:connector-curvature="0"
         style="fill:#ffffff;fill-opacity:1" />
      <path
         stroke="null"
         id="svg_16"
         d="m 325.12027,257.1514 h -7.51631 c -2.59522,0 -4.69808,1.93957 -4.69808,4.33197 0,2.3924 2.10286,4.33197 4.69808,4.33197 h 7.51631 c 2.59522,0 4.69808,-1.93957 4.69808,-4.33197 0,-2.3924 -2.10349,-4.33197 -4.69808,-4.33197 z"
         inkscape:connector-curvature="0"
         style="fill:#ffffff;fill-opacity:1" />
      <path
         stroke="null"
         id="svg_17"
         d="m 362.38858,261.48337 c 0,-2.3924 -2.10286,-4.33197 -4.69808,-4.33197 h -7.5163 c -2.59522,0 -4.69808,1.93957 -4.69808,4.33197 0,2.3924 2.10286,4.33197 4.69808,4.33197 h 7.5163 c 2.59522,0 4.69808,-1.93899 4.69808,-4.33197 z"
         inkscape:connector-curvature="0"
         style="fill:#ffffff;fill-opacity:1" />
    </g>
  </g>
  <path
     d="M 126.90653,38.106222 H 4.5580999 A 6.1174217,6.1174217 0 0 0 -1.5593223,44.22364 V 227.7463 a 6.1174217,6.1174217 0 0 0 6.1174222,6.11742 H 126.90653 a 6.1174217,6.1174217 0 0 0 6.11743,-6.11742 V 44.22364 a 6.1174217,6.1174217 0 0 0 -6.11743,-6.117418 z M 120.78911,221.62888 H 10.675521 V 50.341069 H 120.78911 Z"
     id="path8"
     inkscape:connector-curvature="0"
     style="fill:#ffffff;fill-opacity:1;stroke-width:6.11742163" />
  <path
     d="m 65.732319,166.57208 a 48.939373,48.939373 0 1 0 -48.939376,-48.93937 48.99443,48.99443 0 0 0 48.939376,48.93937 z m 36.153961,-55.0568 H 71.849737 V 81.47875 a 36.75347,36.75347 0 0 1 30.036543,30.03653 z M 59.614896,81.47875 v 36.15396 a 6.1174217,6.1174217 0 0 0 6.117423,6.11742 H 101.88628 A 36.70453,36.70453 0 1 1 59.614896,81.47875 Z"
     id="path14"
     inkscape:connector-curvature="0"
     style="fill:#ffffff;fill-opacity:1;stroke-width:6.11742163" />
  <path
     d="m 22.910364,178.80692 h 24.469688 v 12.23485 H 22.910364 Z"
     id="path16"
     inkscape:connector-curvature="0"
     style="fill:#ffffff;fill-opacity:1;stroke-width:6.11742163" />
  <path
     d="m 22.910364,203.27662 h 61.174221 v 12.23483 H 22.910364 Z"
     id="path18"
     inkscape:connector-curvature="0"
     style="fill:#ffffff;fill-opacity:1;stroke-width:6.11742163" />
  <path
     d="m 59.614896,178.80692 h 12.234841 v 12.23485 H 59.614896 Z"
     id="path20"
     inkscape:connector-curvature="0"
     style="fill:#ffffff;fill-opacity:1;stroke-width:6.11742163" />
</svg>
