<?xml version="1.0" encoding="UTF-8" standalone="no"?>
<svg
   xmlns:dc="http://purl.org/dc/elements/1.1/"
   xmlns:cc="http://creativecommons.org/ns#"
   xmlns:rdf="http://www.w3.org/1999/02/22-rdf-syntax-ns#"
   xmlns:svg="http://www.w3.org/2000/svg"
   xmlns="http://www.w3.org/2000/svg"
   xmlns:sodipodi="http://sodipodi.sourceforge.net/DTD/sodipodi-0.dtd"
   xmlns:inkscape="http://www.inkscape.org/namespaces/inkscape"
   height="512"
   viewBox="0 0 64 64"
   width="512"
   version="1.1"
   id="svg23"
   sodipodi:docname="gestion-animales-inactivo.svg"
   inkscape:version="0.92.4 5da689c313, 2019-01-14">
  <metadata
     id="metadata29">
    <rdf:RDF>
      <cc:Work
         rdf:about="">
        <dc:format>image/svg+xml</dc:format>
        <dc:type
           rdf:resource="http://purl.org/dc/dcmitype/StillImage" />
      </cc:Work>
    </rdf:RDF>
  </metadata>
  <defs
     id="defs27" />
  <sodipodi:namedview
     pagecolor="#ffffff"
     bordercolor="#666666"
     borderopacity="1"
     objecttolerance="10"
     gridtolerance="10"
     guidetolerance="10"
     inkscape:pageopacity="0"
     inkscape:pageshadow="2"
     inkscape:window-width="1366"
     inkscape:window-height="722"
     id="namedview25"
     showgrid="false"
     inkscape:zoom="0.4609375"
     inkscape:cx="-479.45763"
     inkscape:cy="256"
     inkscape:window-x="0"
     inkscape:window-y="22"
     inkscape:window-maximized="1"
     inkscape:current-layer="svg23" />
  <g
     id="cow-report-smartphone-technology"
     style="fill:#153723;fill-opacity:1">
    <rect
       height="3"
       rx="1"
       width="2"
       x="12"
       y="23"
       id="rect2"
       style="fill:#153723;fill-opacity:1" />
    <rect
       height="3"
       rx="1"
       width="2"
       x="18"
       y="23"
       id="rect4"
       style="fill:#153723;fill-opacity:1" />
    <path
       d="M 60,2 H 36 A 2.006,2.006 0 0 0 34,4 V 24 H 23.6 l 0.05,-1 H 26 a 5,5 0 0 0 5,-5 V 16 A 1,1 0 0 0 30,15 H 3 a 1,1 0 0 0 -1,1 v 2 a 5,5 0 0 0 5,5 h 1.35 l 0.38,7.71 A 3.99,3.99 0 0 0 12,37 h 1.08 L 15,61.08 A 1,1 0 0 0 16,62 h 5 a 1.015,1.015 0 0 0 1,-0.9 l 0.33,-3.35 0.69,3.45 A 1,1 0 0 0 24,62 h 3 a 1.015,1.015 0 0 0 1,-0.9 L 28.91,52 h 14.27 l 1.84,9.2 A 1,1 0 0 0 46,62 h 3 a 1.015,1.015 0 0 0 1,-0.9 l 0.49,-4.98 1.55,5.17 A 1.008,1.008 0 0 0 53,62 h 5 a 1,1 0 0 0 1,-1 V 44 h 1 a 2.006,2.006 0 0 0 2,-2 V 4 A 2.006,2.006 0 0 0 60,2 Z M 23.95,17 H 29 v 1 a 3.019,3.019 0 0 1 -3,3 H 23.75 Z M 7,21 A 3.009,3.009 0 0 1 4,18 v -1 h 4.05 l 0.2,4 z m 21,5 h 6 V 36.92 A 7,7 0 0 1 28,30 Z M 21.95,17 21.34,29.25 A 3.983,3.983 0 0 0 20,29 h -8 a 4.068,4.068 0 0 0 -1.34,0.24 L 10.05,17 Z M 12,35 a 2.006,2.006 0 0 1 -2,-2 2.015,2.015 0 0 1 2,-2 h 8 a 2.006,2.006 0 0 1 2,2 2.015,2.015 0 0 1 -2,2 z m 14.09,25 h -1.27 l -1.6,-8 h 3.67 z M 22,50 a 1.015,1.015 0 0 0 -1,0.9 L 20.09,60 H 16.92 L 15.64,44 H 21 a 7,7 0 0 1 6.92,6 z m 26.09,10 h -1.27 l -1.6,-8 h 3.67 z M 57,60 H 53.74 L 50.96,50.71 A 1.008,1.008 0 0 0 50,50 H 29.94 A 9.016,9.016 0 0 0 21,42 h -5.52 l -0.4,-5 H 20 a 3.995,3.995 0 0 0 4,-4 3.952,3.952 0 0 0 -0.73,-2.29 L 23.5,26 H 26 v 4 a 9.016,9.016 0 0 0 8,8.94 V 42 a 2.006,2.006 0 0 0 2,2 H 57 Z M 60,42 H 36 V 4 h 24 z"
       id="path6"
       inkscape:connector-curvature="0"
       style="fill:#153723;fill-opacity:1" />
    <path
       d="M 58,5 H 38 a 1,1 0 0 0 -1,1 v 30 a 1,1 0 0 0 1,1 h 20 a 1,1 0 0 0 1,-1 V 6 A 1,1 0 0 0 58,5 Z M 57,35 H 39 V 7 h 18 z"
       id="path8"
       inkscape:connector-curvature="0"
       style="fill:#153723;fill-opacity:1" />
    <path
       d="m 13,32 h 2 v 2 h -2 z"
       id="path10"
       inkscape:connector-curvature="0"
       style="fill:#153723;fill-opacity:1" />
    <path
       d="m 17,32 h 2 v 2 h -2 z"
       id="path12"
       inkscape:connector-curvature="0"
       style="fill:#153723;fill-opacity:1" />
    <path
       d="m 48,26 a 8,8 0 1 0 -8,-8 8.009,8.009 0 0 0 8,8 z m 5.91,-9 H 49 V 12.09 A 6.008,6.008 0 0 1 53.91,17 Z M 47,12.09 V 18 a 1,1 0 0 0 1,1 h 5.91 A 6,6 0 1 1 47,12.09 Z"
       id="path14"
       inkscape:connector-curvature="0"
       style="fill:#153723;fill-opacity:1" />
    <path
       d="m 41,28 h 4 v 2 h -4 z"
       id="path16"
       inkscape:connector-curvature="0"
       style="fill:#153723;fill-opacity:1" />
    <path
       d="m 41,32 h 10 v 2 H 41 Z"
       id="path18"
       inkscape:connector-curvature="0"
       style="fill:#153723;fill-opacity:1" />
    <path
       d="m 47,28 h 2 v 2 h -2 z"
       id="path20"
       inkscape:connector-curvature="0"
       style="fill:#153723;fill-opacity:1" />
  </g>
</svg>
