<svg width="400" height="510" xmlns="http://www.w3.org/2000/svg">

 <g>
  <title>background</title>
  <rect fill="none" id="canvas_background" height="512" width="402" y="-1" x="-1"/>
 </g>
 <g>
  <title>Layer 1</title>
  <g stroke="null" id="svg_4">
   <g stroke="null" id="svg_5">
    <path stroke="null" fill="#666666" id="svg_6" d="m345,60l-47.58,0c-6.192,-17.459 -22.865,-30 -42.42,-30l-17.57,0c-6.191,-17.461 -22.873,-30 -42.43,-30s-36.239,12.539 -42.43,30l-17.57,0c-19.555,0 -36.228,12.541 -42.42,30l-47.58,0c-24.813,0 -45,20.187 -45,45l0,362c0,24.813 20.187,45 45,45l300,0c24.813,0 45,-20.187 45,-45l0,-362c0,-24.813 -20.187,-45 -45,-45zm-225,15c0,-8.271 6.729,-15 15,-15l30,0c8.284,0 15,-6.716 15,-15c0,-8.271 6.729,-15 15,-15s15,6.729 15,15c0,8.284 6.716,15 15,15l30,0c8.271,0 15,6.729 15,15l0,15l-150,0l0,-15zm240,392c0,8.271 -6.729,15 -15,15l-300,0c-8.271,0 -15,-6.729 -15,-15l0,-362c0,-8.271 6.729,-15 15,-15l45,0l0,15c0,8.284 6.716,15 15,15l180,0c8.284,0 15,-6.716 15,-15l0,-15l45,0c8.271,0 15,6.729 15,15l0,362z"/>
   </g>
  </g>
  <g id="svg_7">
   <g id="svg_8">
    <path fill="#666666" id="svg_9" d="m175.606,155.393c-5.857,-5.858 -15.355,-5.858 -21.212,0l-49.394,49.394l-19.394,-19.394c-5.857,-5.858 -15.355,-5.858 -21.213,0c-5.858,5.858 -5.858,15.355 0,21.213l30,30c5.857,5.857 15.355,5.858 21.213,0l60,-60c5.858,-5.858 5.858,-15.355 0,-21.213z"/>
   </g>
  </g>
  <g id="svg_10">
   <g id="svg_11">
    <path fill="#666666" id="svg_12" d="m175.606,260.393c-5.857,-5.858 -15.355,-5.858 -21.212,0l-49.394,49.394l-19.394,-19.394c-5.857,-5.858 -15.355,-5.858 -21.213,0c-5.858,5.858 -5.858,15.355 0,21.213l30,30c5.857,5.857 15.355,5.858 21.213,0l60,-60c5.858,-5.858 5.858,-15.355 0,-21.213z"/>
   </g>
  </g>
  <g id="svg_13">
   <g id="svg_14">
    <path fill="#666666" id="svg_15" d="m175.606,365.393c-5.857,-5.858 -15.355,-5.858 -21.212,0l-49.394,49.394l-19.394,-19.394c-5.857,-5.858 -15.355,-5.858 -21.213,0c-5.858,5.858 -5.858,15.355 0,21.213l30,30c5.857,5.857 15.355,5.858 21.213,0l60,-60c5.858,-5.858 5.858,-15.355 0,-21.213z"/>
   </g>
  </g>
  <g id="svg_16">
   <g id="svg_17">
    <path fill="#666666" id="svg_18" d="m315,391l-90,0c-8.284,0 -15,6.716 -15,15s6.716,15 15,15l90,0c8.284,0 15,-6.716 15,-15s-6.716,-15 -15,-15z"/>
   </g>
  </g>
  <g id="svg_22">
   <g id="svg_23">
    <path fill="#666666" id="svg_24" d="m315,286l-90,0c-8.284,0 -15,6.716 -15,15s6.716,15 15,15l90,0c8.284,0 15,-6.716 15,-15s-6.716,-15 -15,-15z"/>
   </g>
  </g>
  <g id="svg_25"/>
  <g id="svg_26"/>
  <g id="svg_27"/>
  <g id="svg_28"/>
  <g id="svg_29"/>
  <g id="svg_30"/>
  <g id="svg_31"/>
  <g id="svg_32"/>
  <g id="svg_33"/>
  <g id="svg_34"/>
  <g id="svg_35"/>
  <g id="svg_36"/>
  <g id="svg_37"/>
  <g id="svg_38"/>
  <g id="svg_39"/>
  <metadata transform="matrix(0.046944445305400435,0,0,0.046944445305400435,0,0) ">Created by potrace 1.15, written by Peter Selinger 2001-2017</metadata>
  <g stroke="null" transform="rotate(-0.9484036564826965 270.6155395507821,186.0000457763675) " id="svg_46">
   <g id="svg_43" fill="#000000" transform="matrix(0.029188723037297935,0,0,-0.029496349584231314,-2282.5272685892546,-1084.6116123103411) ">
    <path stroke="null" fill="#666666" id="svg_44" d="m89445.176567,-40887.907838l-374,-371l-48,16c-112,39 -237,30 -345,-25c-31,-16 -95,-63 -140,-104c-46,-41 -86,-75 -91,-75c-4,0 -24,11 -45,24c-64,42 -142,59 -256,54c-167,-6 -157,2 -611,-447c-214,-212 -683,-678 -1042,-1035l-651,-649l-69,60c-37,33 -78,65 -90,72c-48,25 -128,6 -172,-43c-32,-34 -41,-119 -17,-162c9,-16 103,-119 210,-229l195,-200l-244,-244l-243,-244l-122,122c-68,67 -140,131 -161,141c-70,36 -146,19 -193,-42c-21,-29 -26,-46 -26,-94l0,-59l608,-607l607,-608l59,0c98,0 156,60 156,161l0,51l-142,144l-142,145l244,244l244,245l202,-200c242,-241 270,-257 364,-207c52,27 80,75 80,137c0,53 -12,74 -89,152l-55,58l1030,1032c631,632 1041,1051 1057,1078c42,72 60,162 54,259c-4,72 -11,95 -45,164l-40,81l74,79c49,52 86,103 111,155c37,75 38,78 38,191c0,88 -5,125 -18,155l-18,40l371,371l370,371l0,107l0,107l-105,0l-105,0l-375,-371zm-494,-662c61,-41 86,-125 55,-185c-8,-15 -40,-52 -70,-82l-56,-55l-102,103l-103,102l50,51c28,28 64,60 80,70c41,26 104,24 146,-4zm-724,-128c36,-13 618,-593 638,-635c20,-43 19,-93 -4,-129c-10,-17 -232,-246 -494,-510l-476,-480l-388,387l-388,388l102,102l102,102l99,-96c105,-104 129,-118 196,-118c106,0 178,119 130,213c-9,18 -59,75 -110,127l-94,96l103,102l102,102l90,-91c97,-97 145,-129 197,-129c78,0 148,70 148,146c0,67 -14,91 -117,196l-97,98l40,41c85,88 152,114 221,88zm-939,-1592l382,-382l-420,-420l-420,-420l-387,387l-388,388l205,205c113,113 209,205 215,205c6,0 51,-41 100,-91c101,-101 128,-119 180,-119c78,0 142,55 152,129c9,66 -11,100 -117,206l-100,100l97,97c54,54 102,98 108,98c5,0 182,-172 393,-383zm-1063,-1057l100,-100l-243,-243l-242,-242l-102,103l-103,102l240,240c132,132 242,240 245,240c3,0 50,-45 105,-100z"/>
    <path stroke="null" fill="#666666" id="svg_45" d="m88802.176567,-43356.907838c-131,-80 -74,-280 81,-280l47,0l0,-165l0,-164l-28,-15c-38,-20 -115,-104 -144,-157l-23,-44l0,-605l0,-605l29,-53c34,-61 105,-130 167,-164c44,-23 47,-23 424,-26c254,-2 395,1 425,8c63,15 143,71 185,128c68,92 65,65 63,807l-3,670l-28,-28l-28,-27l-25,29c-13,16 -45,42 -69,58l-45,28l0,163l0,162l53,0c90,0 147,56 147,145c0,59 -25,106 -72,135c-32,19 -52,20 -578,20c-526,0 -546,-1 -578,-20zm728,-430l0,-150l-150,0l-150,0l0,150l0,150l150,0l150,0l0,-150zm182,-468c9,-9 14,-54 16,-147l4,-135l-351,0l-351,0l1,113c2,156 6,170 49,178c19,4 166,6 327,5c224,-1 295,-4 305,-14zm16,-812c-3,-204 -5,-231 -21,-247c-16,-17 -44,-18 -332,-18c-244,0 -317,3 -327,13c-10,10 -14,72 -16,247l-3,235l351,0l352,0l-4,-230z"/>
   </g>
  </g>
 </g>
</svg>