<svg width="512" height="512" xmlns="http://www.w3.org/2000/svg">

 <g>
  <title>background</title>
  <rect fill="none" id="canvas_background" height="402" width="582" y="-1" x="-1"/>
 </g>
 <g>
  <title>Layer 1</title>
  <path fill="#ffffff" id="svg_1" d="m213.34375,512c38.63672,0 70.95703,-27.54297 78.37891,-64l-156.75782,0c7.42579,36.45703 39.7461,64 78.37891,64zm0,0"/>
  <path fill="#ffffff" id="svg_2" d="m362.93359,255.98047c-0.08593,0 -0.17187,0.01953 -0.25781,0.01953c-82.32422,0 -149.33203,-66.98828 -149.33203,-149.33203c0,-22.63672 5.20703,-44.03516 14.27344,-63.27734c-4.69531,-0.44532 -9.45313,-0.72266 -14.27344,-0.72266c-82.47266,0 -149.33203,66.85547 -149.33203,149.33203l0,59.47656c0,42.21875 -18.49609,82.07032 -50.94531,109.50391c-10.81641,9.23828 -15.61719,23.95703 -11.73438,38.31641c4.52344,16.70312 21.03516,27.37109 38.35938,27.37109l347.19922,0c18.17578,0 35.30859,-11.77734 38.99609,-29.58984c2.85937,-13.78125 -2.04688,-27.54297 -12.73438,-36.52344c-31.01953,-26.00391 -48.96093,-64.21485 -50.21875,-104.57422zm0,0"/>
  <path fill="#ff0000" id="svg_3" d="m469.34375,106.66797c0,58.91016 -47.75391,106.66406 -106.66797,106.66406c-58.91015,0 -106.66406,-47.7539 -106.66406,-106.66406c0,-58.91016 47.75391,-106.66797 106.66406,-106.66797c58.91406,0 106.66797,47.75781 106.66797,106.66797zm0,0"/>
 </g>
</svg>