<svg width="512.001" height="512.001" xmlns="http://www.w3.org/2000/svg">

 <g>
  <title>background</title>
  <rect fill="none" id="canvas_background" height="402" width="582" y="-1" x="-1"/>
 </g>
 <g>
  <title>Layer 1</title>
  <g id="svg_1">
   <g id="svg_2">
    <circle fill="#666666" id="svg_3" r="15" cy="285" cx="196"/>
   </g>
  </g>
  <g id="svg_4">
   <g id="svg_5">
    <circle fill="#666666" id="svg_6" r="15" cy="285" cx="316"/>
   </g>
  </g>
  <g id="svg_7">
   <g id="svg_8">
    <path fill="#666666" id="svg_9" d="m506.308,183.237l-85.486,-67.638c-2.264,-31.035 -28.22,-55.599 -59.822,-55.599c-2.652,0 -5.296,0.18 -7.922,0.538c-9.317,-16.512 -26.051,-27.865 -45.078,-30.124c-10.516,-18.544 -30.275,-30.414 -52,-30.414c-21.725,0 -41.483,11.87 -51.999,30.414c-19.025,2.259 -35.762,13.615 -45.079,30.124c-2.626,-0.358 -5.269,-0.538 -7.922,-0.538c-31.602,0 -57.558,24.564 -59.821,55.599l-85.487,67.638c-3.862,3.056 -5.979,7.814 -5.661,12.729c0.318,4.915 3.027,9.362 7.251,11.896c24.723,14.834 54.228,20.208 83.718,13.647l0,47.149c0,13.364 3.583,26.517 10.313,37.955l41.484,71.505c3.901,6.63 6.047,14.198 6.206,21.887l0.779,37.552c0.853,41.048 34.49,74.443 74.984,74.443l62.508,0c40.464,0 74.102,-33.371 74.982,-74.39l0.815,-37.982c0.166,-7.697 2.321,-15.269 6.278,-21.978l41.247,-70.922c6.807,-11.535 10.404,-24.712 10.404,-38.106l0,-47.113c28.41,6.32 58.043,1.759 83.718,-13.646c4.224,-2.534 6.934,-6.98 7.251,-11.896c0.317,-4.916 -1.799,-9.674 -5.661,-12.73zm-355.308,-93.237c3.739,0 7.488,0.744 11.143,2.211c8.325,3.343 17.723,-1.331 20.069,-10.002c3.494,-12.917 15.088,-21.986 28.297,-22.206c8.932,1.248 15.133,-3.5 17.328,-9.8c4.21,-12.084 15.527,-20.203 28.163,-20.203s23.954,8.119 28.164,20.204c2.105,6.042 8.116,11.09 17.327,9.8c13.21,0.22 24.803,9.289 28.297,22.206c2.344,8.663 11.734,13.348 20.068,10.002c3.656,-1.468 7.406,-2.212 11.144,-2.212c16.542,0 30,13.458 30,30c0,15.1 -11.215,27.624 -25.752,29.694c-2.326,-0.514 -4.769,-0.474 -7.122,0.158c-2.78,-0.283 -5.55,-0.972 -8.27,-2.064c-3.976,-1.597 -8.445,-1.417 -12.28,0.495c-3.835,1.911 -6.669,5.372 -7.788,9.507c-3.422,12.649 -15.066,22.872 -30.582,21.967c-6.693,-0.396 -12.837,3.707 -15.042,10.04c-4.21,12.084 -15.528,20.203 -28.164,20.203s-23.953,-8.119 -28.163,-20.204c-2.154,-6.185 -8.239,-11.074 -17.329,-9.8c-13.209,-0.221 -24.802,-9.29 -28.296,-22.206c-1.119,-4.136 -3.953,-7.596 -7.789,-9.508c-3.835,-1.912 -8.306,-2.091 -12.28,-0.494c-2.719,1.092 -5.49,1.782 -8.27,2.064c-2.352,-0.631 -4.793,-0.671 -7.118,-0.158c-14.538,-2.069 -25.755,-14.593 -25.755,-29.694c0,-16.542 13.458,-30 30,-30zm-107.103,101.263l54.239,-42.914c5.579,10.362 14.113,18.904 24.47,24.492c-20.185,17.338 -49.679,26.421 -78.709,18.422zm347.103,77.359c0,8.036 -2.158,15.942 -6.288,22.943l-41.247,70.923c-6.517,11.048 -10.107,23.667 -10.384,36.495l-0.815,37.983c-0.535,24.832 -20.717,45.034 -44.991,45.034l-16.275,0l0,-33.58c17.459,-6.192 30,-22.865 30,-42.42c0,-8.284 -6.716,-15 -15,-15s-15,6.716 -15,15c0,8.271 -6.729,15 -15,15s-15,-6.729 -15,-15c0,-8.284 -6.716,-15 -15,-15s-15,6.716 -15,15c0,19.555 12.541,36.228 30,42.42l0,33.58l-16.232,0c-24.292,0 -44.475,-20.217 -44.99,-45.066l-0.779,-37.551c-0.266,-12.815 -3.842,-25.429 -10.297,-36.399l-41.485,-71.506c-4.066,-6.911 -6.216,-14.801 -6.216,-22.82l0,-58.354c14.159,-7.638 26.683,-18.125 36.449,-30.667c0.491,-0.054 0.983,-0.108 1.473,-0.175c9.317,16.51 26.054,27.866 45.079,30.125c10.515,18.543 30.273,30.413 51.998,30.413c21.725,0 41.484,-11.87 52,-30.414c19.025,-2.259 35.761,-13.615 45.078,-30.125c0.49,0.067 0.981,0.121 1.473,0.176c9.766,12.542 22.291,23.028 36.449,30.667l0,58.318zm-1.606,-95.781c10.356,-5.587 18.891,-14.13 24.47,-24.492l54.239,42.914c-29.035,7.998 -58.526,-1.085 -78.709,-18.422z"/>
   </g>
  </g>
  <g id="svg_10"/>
  <g id="svg_11"/>
  <g id="svg_12"/>
  <g id="svg_13"/>
  <g id="svg_14"/>
  <g id="svg_15"/>
  <g id="svg_16"/>
  <g id="svg_17"/>
  <g id="svg_18"/>
  <g id="svg_19"/>
  <g id="svg_20"/>
  <g id="svg_21"/>
  <g id="svg_22"/>
  <g id="svg_23"/>
  <g id="svg_24"/>
 </g>
</svg>