<?xml version="1.0"?>
<svg xmlns="http://www.w3.org/2000/svg" id="FilledOutline" viewBox="0 0 512 512" width="512" height="512"><path d="M181.04,296.8A79.994,79.994,0,0,0,112,376v80a32,32,0,0,0,32,32H368a32,32,0,0,0,32-32V376a79.994,79.994,0,0,0-69.04-79.2Z" style="fill:#58646f"/><path d="M288,304v24a32.514,32.514,0,0,1-.71,6.74,32.009,32.009,0,0,1-62.58,0A32.514,32.514,0,0,1,224,328V304Z" style="fill:#f5be98"/><rect x="120" y="168" width="272" height="48" rx="24" style="fill:#eb9180"/><path d="M288,304v24a32.514,32.514,0,0,1-.71,6.74A103.425,103.425,0,0,1,271.12,336H240.88a103.425,103.425,0,0,1-16.17-1.26A32.514,32.514,0,0,1,224,328V304Z" style="fill:#eb9180"/><path d="M360,128V231.122a88.876,88.876,0,0,1-21.4,57.841h0A88.878,88.878,0,0,1,271.122,320H240.878A88.878,88.878,0,0,1,173.4,288.963h0A88.876,88.876,0,0,1,152,231.122V128Z" style="fill:#f5be98"/><path d="M144,104h0a80,80,0,0,1,80-80h64a80,80,0,0,1,80,80H144Z" style="fill:#35505d"/><rect x="152" y="136" width="208" height="96" style="fill:#35505d"/><path d="M232.268,184.551A24.864,24.864,0,1,1,185.375,168Z" style="fill:#ef5349"/><path d="M279.732,184.551A24.864,24.864,0,0,0,326.625,168Z" style="fill:#ef5349"/><rect x="136" y="104" width="240" height="32" style="fill:#58646f"/><path d="M216,432h8l12.485-12.485A12,12,0,0,1,244.971,416H264a8,8,0,0,1,8,8v8h24a8,8,0,0,1,8,8v40a8,8,0,0,1-8,8H216Z" style="fill:#f5be98"/><path d="M197.884,207.266a32.864,32.864,0,0,0,41.928-20.053,8,8,0,0,0-4.881-10.206l-46.894-16.551a8,8,0,0,0-10.206,4.881A32.9,32.9,0,0,0,197.884,207.266Zm22.272-18.507a16.879,16.879,0,0,1-28-9.884Z"/><path d="M289,205.923a32.864,32.864,0,0,0,45.17-40.586,8,8,0,0,0-10.206-4.881l-46.894,16.551a8,8,0,0,0-4.881,10.206A32.646,32.646,0,0,0,289,205.923Zm30.85-27.048a16.869,16.869,0,0,1-28,9.884Z"/><path d="M280.9,260.318c-.257.476-6.51,11.682-24.9,11.682s-24.641-11.206-24.9-11.682l.053.1-14.31,7.156C217.262,268.412,227.385,288,256,288s38.738-19.588,39.155-20.422l-14.31-7.156Z"/><path d="M346.38,292.09A96.923,96.923,0,0,0,368,231.122V224a32,32,0,0,0,0-64V144h8a8,8,0,0,0,8-8V104a8,8,0,0,0-8-8h-.367A88.118,88.118,0,0,0,288,16H224a88.118,88.118,0,0,0-87.633,80H136a8,8,0,0,0-8,8v32a8,8,0,0,0,8,8h8v16a32,32,0,0,0,0,64v7.122a96.928,96.928,0,0,0,21.619,60.968A88.266,88.266,0,0,0,104,376v80a40.045,40.045,0,0,0,40,40H368a40.045,40.045,0,0,0,40-40V376A88.266,88.266,0,0,0,346.38,292.09ZM232,327.586c2.938.269,5.9.414,8.878.414h30.244c2.979,0,5.94-.145,8.878-.414V328a24,24,0,1,1-48,0ZM271.122,312H240.878a80.829,80.829,0,0,1-80.368-72H351.49a80.831,80.831,0,0,1-80.368,72ZM384,192a16.019,16.019,0,0,1-16,16V176A16.019,16.019,0,0,1,384,192Zm-16-64H144V112H368ZM295.258,55.181A76.635,76.635,0,0,1,311.6,96H264V34.09A62.042,62.042,0,0,1,295.258,55.181ZM248,34.09V96H200.4a76.635,76.635,0,0,1,16.338-40.819A62.042,62.042,0,0,1,248,34.09ZM359.545,96H327.673c-2.1-26.178-14.414-49.126-32.71-63.657A72.12,72.12,0,0,1,359.545,96ZM217.037,32.343c-18.3,14.531-30.61,37.479-32.71,63.657H152.455A72.12,72.12,0,0,1,217.037,32.343ZM352,144v80H160V144ZM128,192a16.019,16.019,0,0,1,16-16v32A16.019,16.019,0,0,1,128,192Zm96,288V440a8,8,0,0,0,5.657-2.343l12.486-12.486A4.028,4.028,0,0,1,244.971,424H264v8a8,8,0,0,0,8,8h24v40Zm168-24a24.028,24.028,0,0,1-24,24H312V440h40a8,8,0,0,0,8-8V376H344v48H280a16.019,16.019,0,0,0-16-16H244.971a19.869,19.869,0,0,0-14.143,5.858L220.687,424H168V376H152v56a8,8,0,0,0,8,8h48v40H144a24.028,24.028,0,0,1-24-24V376a72.134,72.134,0,0,1,58.565-70.694A96.7,96.7,0,0,0,216,324.751V328a40,40,0,0,0,80,0v-3.249a96.7,96.7,0,0,0,37.435-19.445A72.134,72.134,0,0,1,392,376Z"/></svg>
