<?xml version="1.0" encoding="UTF-8" standalone="no"?>
<svg
   xmlns:dc="http://purl.org/dc/elements/1.1/"
   xmlns:cc="http://creativecommons.org/ns#"
   xmlns:rdf="http://www.w3.org/1999/02/22-rdf-syntax-ns#"
   xmlns:svg="http://www.w3.org/2000/svg"
   xmlns="http://www.w3.org/2000/svg"
   xmlns:sodipodi="http://sodipodi.sourceforge.net/DTD/sodipodi-0.dtd"
   xmlns:inkscape="http://www.inkscape.org/namespaces/inkscape"
   width="500"
   height="500"
   version="1.1"
   id="svg25"
   sodipodi:docname="seguridad.svg"
   inkscape:version="0.92.5 (2060ec1f9f, 2020-04-08)">
  <metadata
     id="metadata31">
    <rdf:RDF>
      <cc:Work
         rdf:about="">
        <dc:format>image/svg+xml</dc:format>
        <dc:type
           rdf:resource="http://purl.org/dc/dcmitype/StillImage" />
        <dc:title />
      </cc:Work>
    </rdf:RDF>
  </metadata>
  <defs
     id="defs29" />
  <sodipodi:namedview
     pagecolor="#ffffff"
     bordercolor="#666666"
     borderopacity="1"
     objecttolerance="10"
     gridtolerance="10"
     guidetolerance="10"
     inkscape:pageopacity="0"
     inkscape:pageshadow="2"
     inkscape:window-width="1920"
     inkscape:window-height="1017"
     id="namedview27"
     showgrid="false"
     inkscape:pagecheckerboard="true"
     fit-margin-top="0"
     fit-margin-left="0"
     fit-margin-right="0"
     fit-margin-bottom="0"
     inkscape:zoom="0.59"
     inkscape:cx="107.73399"
     inkscape:cy="196.03483"
     inkscape:window-x="-8"
     inkscape:window-y="-8"
     inkscape:window-maximized="1"
     inkscape:current-layer="svg25" />
  <!-- Created with Method Draw - http://github.com/duopixel/Method-Draw/ -->
  <g
     id="g23"
     transform="translate(-74.638887,54.812638)"
     style="fill:#153723;fill-opacity:1">
    <title
       id="title10">Layer 1</title>
    <g
       stroke="null"
       id="svg_8"
       style="fill:#153723;fill-opacity:1">
      <path
         stroke="null"
         id="svg_4"
         d="M 326.31277,65.833881 138.82104,2.428797 c -2.39813,-0.80891 -5.06251,0.310434 -5.94675,2.501221 -0.002,0.00177 -0.002,0.00355 -0.004,0.00532 l -20.75533,51.569515 c -0.8823,2.190787 0.34786,4.621051 2.74794,5.42641 h 0.004 l 21.73285,7.283699 -4.7885,11.908301 c -0.88035,2.190787 0.34981,4.617504 2.74989,5.422859 l 43.47347,14.569178 -3.19492,7.93827 c -2.90342,7.10986 -0.19434,15.11377 6.59973,19.48647 v 21.57082 h -62.30874 c -3.01613,-6.29385 -9.18831,-10.86346 -16.55956,-12.25776 v -8.87667 c 0,-2.33448 -2.07165,-4.22725 -4.631084,-4.22725 h -18.67008 c -2.557489,0 -4.631079,1.89277 -4.631079,4.22725 v 67.63055 c 0,2.33625 2.07359,4.22724 4.631079,4.22724 h 18.67008 c 2.559434,0 4.631084,-1.89099 4.631084,-4.22724 v -8.8749 c 7.37125,-1.39607 13.54343,-5.96391 16.55956,-12.25953 h 62.30874 v 4.22724 c 0,7.00342 6.21882,12.68172 13.89129,12.68172 7.67248,0 13.89325,-5.6783 13.89325,-12.68172 v -46.82607 c 4.20936,-1.90518 7.46064,-5.20999 9.08142,-9.23678 l 3.19492,-7.93827 39.12419,13.10392 c 0.5111,0.17206 1.04942,0.25899 1.59357,0.25899 1.94144,0 3.67882,-1.10516 4.34929,-2.76909 l 1.73544,-4.31593 c 15.06899,2.58814 29.58217,-6.46416 32.41562,-20.21733 1.04748,-5.082269 0.3673,-10.334836 -1.94921,-15.053451 l 28.07216,-13.157138 c 2.2757,-1.06435 3.17549,-3.611691 2.00946,-5.688947 -0.5286,-0.943726 -1.42644,-1.67103 -2.51474,-2.038229 l -0.0233,0.01242 z m -135.61313,66.557339 3.8343,1.26835 c 1.74515,0.5712 3.57582,0.89937 5.42786,0.9721 v 15.47919 h -9.26216 z m -97.388731,59.99029 h -9.409858 v -59.17784 h 9.409858 z m 18.522381,-25.36168 c -0.008,5.37142 -3.71575,10.15922 -9.26216,11.95797 v -32.37042 c 5.54641,1.79698 9.25438,6.58478 9.26216,11.95797 z m 9.40597,-8.45448 h 78.72254 v 8.45448 h -78.72254 z m 74.09147,25.36168 c -2.55749,0 -4.63108,-1.89277 -4.63108,-4.22724 v -4.22725 h 9.26215 v 4.22725 c 0,2.33447 -2.07358,4.22724 -4.63107,4.22724 z m 17.47684,-71.13936 -3.19493,7.93827 c -1.76459,4.37803 -7.08363,6.62381 -11.88378,5.01664 l -8.71024,-2.91277 c -4.80016,-1.60895 -7.26437,-6.46593 -5.50172,-10.84927 0,0 0,0 0,-0.002 l 3.19687,-7.93295 23.47217,7.86554 z m 46.6645,6.63622 -117.37254,-39.341915 3.19687,-7.938275 69.54977,23.312807 c 1.64605,0.546364 3.49226,0.204001 4.77295,-0.888731 l 12.9954,-11.166805 36.43454,12.215188 z m 31.30984,-16.52049 c -2.93451,7.22162 -10.82658,11.73446 -19.22394,10.99119 l 7.15553,-17.792379 11.6875,-5.493816 c 1.82873,3.906162 1.96476,8.301928 0.38091,12.295005 z M 275.15128,88.28811 c -0.24486,0.01951 -0.48779,0.05854 -0.72682,0.117077 L 233.13729,74.56687 c -1.64604,-0.551691 -3.49225,-0.209323 -4.771,0.886956 L 215.35534,86.622402 122.40529,55.465341 139.96181,11.83055 313.22604,70.424773 Z m 0,0"
         inkscape:connector-curvature="0"
         style="fill:#153723;fill-opacity:1" />
      <path
         stroke="null"
         id="svg_5"
         d="m 160.37316,59.18347 3.19103,-7.9365 8.69469,2.91454 -3.19297,7.936504 z m 0,0"
         inkscape:connector-curvature="0"
         style="fill:#153723;fill-opacity:1" />
      <path
         stroke="null"
         id="svg_6"
         d="m 177.7606,65.010784 3.19104,-7.9365 8.69469,2.914545 -3.19298,7.934724 z m 0,0"
         inkscape:connector-curvature="0"
         style="fill:#153723;fill-opacity:1" />
      <path
         stroke="null"
         id="svg_7"
         d="m 195.14804,70.841644 3.19298,-7.9365 8.69276,2.914545 -3.19298,7.9365 z m 0,0"
         inkscape:connector-curvature="0"
         style="fill:#153723;fill-opacity:1" />
    </g>
    <g
       stroke="null"
       id="svg_18"
       style="fill:#153723;fill-opacity:1">
      <path
         stroke="null"
         id="svg_13"
         d="M 569.66295,387.37032 H 555.49918 V 287.08934 c 0,-2.39241 -2.10286,-4.33197 -4.69808,-4.33197 -2.59523,0 -4.69809,1.93956 -4.69809,4.33197 v 82.23112 h -15.30196 v -25.74921 c 0,-5.57322 -4.91733,-10.10734 -10.96157,-10.10734 h -79.9482 c -2.59522,0 -4.69808,1.93956 -4.69808,4.33196 0,2.3924 2.10286,4.33197 4.69808,4.33197 h 32.11734 v 45.24306 h -6.55038 v -7.63293 c 0,-2.3924 -2.10286,-4.33196 -4.69808,-4.33196 -2.59522,0 -4.69808,1.93956 -4.69808,4.33196 v 7.63293 h -5.63645 v -7.63293 c 0,-2.3924 -2.10286,-4.33196 -4.69808,-4.33196 -2.59522,0 -4.69808,1.93956 -4.69808,4.33196 v 7.63293 h -5.63645 v -7.63293 c 0,-2.3924 -2.10286,-4.33196 -4.69808,-4.33196 -2.59522,0 -4.69808,1.93956 -4.69808,4.33196 v 7.63293 h -5.63645 v -7.63293 c 0,-2.3924 -2.10286,-4.33196 -4.69808,-4.33196 -2.59522,0 -4.69808,1.93956 -4.69808,4.33196 v 7.63293 h -10.15287 v -43.79965 c 0,-0.79593 0.70221,-1.44341 1.5654,-1.44341 h 15.17293 c 2.59522,0 4.69808,-1.93957 4.69808,-4.33197 0,-2.3924 -2.10286,-4.33196 -4.69808,-4.33196 h -15.17293 c -6.04424,0 -10.96156,4.53412 -10.96156,10.10734 v 25.74921 h -15.30197 v -25.74921 c 0,-5.57322 -4.91733,-10.10734 -10.96157,-10.10734 h -24.3417 c -7.77063,0 -14.09299,-5.8291 -14.09299,-12.99475 v -30.36131 h 30.1905 c 15.3953,0 27.91976,-11.54844 27.91976,-25.74401 v -1.60918 c 0,-1.77784 -0.19669,-3.51409 -0.57066,-5.19143 4.46694,-7.21128 7.0346,-15.54483 7.0346,-24.42767 0,-2.3924 -2.10287,-4.33197 -4.69809,-4.33197 -2.59522,0 -4.69808,1.93957 -4.69808,4.33197 0,4.95288 -0.97156,9.69841 -2.73553,14.09217 -5.10275,-6.20222 -13.17719,-10.21766 -22.25263,-10.21766 h -38.52051 c -9.07544,0 -17.14988,4.01487 -22.25262,10.21766 -1.76398,-4.39434 -2.73554,-9.13929 -2.73554,-14.09217 v -45.55092 h 88.49621 v 25.09075 c 0,2.3924 2.10286,4.33197 4.69808,4.33197 2.59522,0 4.69808,-1.93957 4.69808,-4.33197 v -3.05779 c 0.90266,0.0797 1.81346,0.13516 2.73867,0.13516 8.11954,0 15.71477,-3.20277 21.05868,-8.49066 h 91.86755 c 21.5855,0 39.1463,16.19289 39.1463,36.09626 v 29.32221 c 0,2.3924 2.10286,4.33197 4.69808,4.33197 2.59522,0 4.69808,-1.93957 4.69808,-4.33197 v -29.32221 c 0,-24.68066 -21.77655,-44.76019 -48.54246,-44.76019 h -86.02815 c 0.0175,-0.0433 0.0376,-0.0861 0.0551,-0.12996 1.23215,-3.06126 0.75357,-6.49795 -1.27851,-9.19243 -2.05713,-2.72683 -5.43349,-4.35507 -9.03034,-4.35507 H 391.29178 379.3217 v -10.08193 c 0,-6.54705 -5.77677,-11.87363 -12.87776,-11.87363 h -0.61388 c -7.101,0 -12.87776,5.32658 -12.87776,11.87363 v 10.08251 h -30.61082 v -10.08251 c 0,-6.54705 -5.77677,-11.87363 -12.87776,-11.87363 h -0.61388 c -7.101,0 -12.87776,5.32658 -12.87776,11.87363 v 10.08251 h -11.96946 -19.38178 c -3.59685,0 -6.97321,1.62824 -9.03034,4.35507 -2.03208,2.69448 -2.51065,6.13059 -1.27913,9.19185 4.15874,10.33838 14.99001,17.28513 26.95258,17.28513 0.92521,0 1.83601,-0.0549 2.73867,-0.13516 v 23.51796 c 0,8.88284 2.56766,17.21639 7.0346,24.42709 -0.37397,1.67734 -0.57066,3.41359 -0.57066,5.19143 v 1.60918 c 0,13.86576 11.95129,25.19992 26.85423,25.71917 v 30.38673 66.90116 h -5.94651 v -7.63293 c 0,-2.3924 -2.10287,-4.33197 -4.69809,-4.33197 -2.59522,0 -4.69808,1.93957 -4.69808,4.33197 v 7.63293 h -3.75721 v -7.63293 c 0,-2.3924 -2.10286,-4.33197 -4.69808,-4.33197 -2.59522,0 -4.69809,1.93957 -4.69809,4.33197 v 7.63293 H 282.716 c -2.59522,0 -4.69808,1.93956 -4.69808,4.33196 0,2.3924 2.10286,4.33197 4.69808,4.33197 h 286.94696 c 2.59522,0 4.69808,-1.93957 4.69808,-4.33197 0,-2.3924 -2.10286,-4.33254 -4.69809,-4.33254 z M 391.29181,187.58522 h 19.38178 c 0.75358,0 1.17139,0.44648 1.31672,0.63882 0.2017,0.26743 0.39777,0.69773 0.18291,1.23143 -2.7988,6.9583 -10.0896,11.63393 -18.14274,11.63393 -0.93022,0 -1.84353,-0.0641 -2.73867,-0.18252 z m -28.94332,-18.74644 c 0,-1.76976 1.56165,-3.2097 3.4816,-3.2097 h 0.61388 c 1.91932,0 3.48159,1.43994 3.48159,3.2097 v 10.0825 h -4.63481 -2.94163 v -10.0825 z m -56.97959,0 c 0,-1.76976 1.56164,-3.2097 3.48159,-3.2097 h 0.61389 c 1.91932,0 3.48159,1.43994 3.48159,3.2097 v 10.0825 h -2.94163 -4.63481 v -10.0825 z m -21.36625,32.06752 c -0.89514,0.11783 -1.80845,0.18252 -2.73867,0.18252 -8.05251,0 -15.34393,-4.67505 -18.14336,-11.6345 -0.21424,-0.53255 -0.0182,-0.96343 0.18353,-1.23086 0.1447,-0.19234 0.56252,-0.63882 1.31672,-0.63882 h 19.38178 z m 15.86073,63.45754 v -1.60918 c 0,-9.4177 8.30996,-17.08008 18.52359,-17.08008 h 38.52052 c 10.21426,0 18.5236,7.66238 18.5236,17.08008 v 1.60918 c 0,9.41769 -8.30997,17.08008 -18.5236,17.08008 h -38.52052 c -10.21425,0 -18.52359,-7.66239 -18.52359,-17.08008 z m 42.15557,123.00648 h -15.30196 v -9.38593 h 15.30196 z m 6.3e-4,-18.04986 H 326.71699 V 337.7849 c 3.92822,2.72509 8.80921,4.34294 14.09299,4.34294 h 1.2096 z m 24.69813,18.04986 h -15.30197 v -45.24306 h 13.73657 c 0.86319,0 1.5654,0.64748 1.5654,1.44341 z m 24.6975,0 h -15.30196 v -9.38593 h 15.30196 z m 105.29154,0 h -15.30197 v -9.38593 h 15.30197 z m 0,-18.04986 h -15.30197 v -27.19262 h 15.30197 z m 24.69813,18.04986 h -15.30197 v -45.24306 h 13.73657 c 0.86319,0 1.5654,0.64748 1.5654,1.44341 z m 24.69813,0 h -15.30196 v -9.38593 h 15.30196 z"
         inkscape:connector-curvature="0"
         style="fill:#153723;fill-opacity:1" />
      <path
         stroke="null"
         id="svg_14"
         d="m 312.17235,215.30749 v 8.70899 c 0,2.3924 2.10286,4.33197 4.69808,4.33197 2.59522,0 4.69809,-1.93957 4.69809,-4.33197 v -8.70899 c 0,-2.3924 -2.10287,-4.33196 -4.69809,-4.33196 -2.59522,0 -4.69808,1.93956 -4.69808,4.33196 z"
         inkscape:connector-curvature="0"
         style="fill:#153723;fill-opacity:1" />
      <path
         stroke="null"
         id="svg_15"
         d="m 353.72595,215.30749 v 8.70899 c 0,2.3924 2.10286,4.33197 4.69808,4.33197 2.59522,0 4.69808,-1.93957 4.69808,-4.33197 v -8.70899 c 0,-2.3924 -2.10286,-4.33196 -4.69808,-4.33196 -2.59522,0 -4.69808,1.93956 -4.69808,4.33196 z"
         inkscape:connector-curvature="0"
         style="fill:#153723;fill-opacity:1" />
      <path
         stroke="null"
         id="svg_16"
         d="m 325.12027,257.1514 h -7.51631 c -2.59522,0 -4.69808,1.93957 -4.69808,4.33197 0,2.3924 2.10286,4.33197 4.69808,4.33197 h 7.51631 c 2.59522,0 4.69808,-1.93957 4.69808,-4.33197 0,-2.3924 -2.10349,-4.33197 -4.69808,-4.33197 z"
         inkscape:connector-curvature="0"
         style="fill:#153723;fill-opacity:1" />
      <path
         stroke="null"
         id="svg_17"
         d="m 362.38858,261.48337 c 0,-2.3924 -2.10286,-4.33197 -4.69808,-4.33197 h -7.5163 c -2.59522,0 -4.69808,1.93957 -4.69808,4.33197 0,2.3924 2.10286,4.33197 4.69808,4.33197 h 7.5163 c 2.59522,0 4.69808,-1.93899 4.69808,-4.33197 z"
         inkscape:connector-curvature="0"
         style="fill:#153723;fill-opacity:1" />
    </g>
  </g>
</svg>
