<?xml version="1.0" encoding="UTF-8" standalone="no"?>
<svg
   xmlns:dc="http://purl.org/dc/elements/1.1/"
   xmlns:cc="http://creativecommons.org/ns#"
   xmlns:rdf="http://www.w3.org/1999/02/22-rdf-syntax-ns#"
   xmlns:svg="http://www.w3.org/2000/svg"
   xmlns="http://www.w3.org/2000/svg"
   xmlns:sodipodi="http://sodipodi.sourceforge.net/DTD/sodipodi-0.dtd"
   xmlns:inkscape="http://www.inkscape.org/namespaces/inkscape"
   width="512"
   height="512"
   version="1.1"
   id="svg26"
   sodipodi:docname="seguridad.svg"
   inkscape:version="0.92.4 5da689c313, 2019-01-14">
  <metadata
     id="metadata32">
    <rdf:RDF>
      <cc:Work
         rdf:about="">
        <dc:format>image/svg+xml</dc:format>
        <dc:type
           rdf:resource="http://purl.org/dc/dcmitype/StillImage" />
      </cc:Work>
    </rdf:RDF>
  </metadata>
  <defs
     id="defs30" />
  <sodipodi:namedview
     pagecolor="#ffffff"
     bordercolor="#666666"
     borderopacity="1"
     objecttolerance="10"
     gridtolerance="10"
     guidetolerance="10"
     inkscape:pageopacity="0"
     inkscape:pageshadow="2"
     inkscape:window-width="1366"
     inkscape:window-height="722"
     id="namedview28"
     showgrid="false"
     inkscape:zoom="0.4609375"
     inkscape:cx="256"
     inkscape:cy="256"
     inkscape:window-x="0"
     inkscape:window-y="22"
     inkscape:window-maximized="1"
     inkscape:current-layer="svg26" />
  <g
     id="g5">
    <title
       id="title2">background</title>
    <rect
       fill="none"
       id="canvas_background"
       height="402"
       width="582"
       y="-1"
       x="-1" />
  </g>
  <g
     id="g24"
     style="fill:#153723;fill-opacity:1">
    <title
       id="title7">Layer 1</title>
    <g
       id="Out_line"
       style="fill:#153723;fill-opacity:1">
      <path
         id="svg_1"
         d="m 136,216 h -8 v 16 h 8 a 56.06322,56.06322 0 0 1 56,56 v 8 h 16 v -8 a 72.08124,72.08124 0 0 0 -72,-72 z"
         inkscape:connector-curvature="0"
         style="fill:#153723;fill-opacity:1" />
      <path
         id="svg_2"
         d="m 136,240 h -8 v 16 h 8 a 32.03635,32.03635 0 0 1 32,32 v 8 h 16 v -8 a 48.054,48.054 0 0 0 -48,-48 z"
         inkscape:connector-curvature="0"
         style="fill:#153723;fill-opacity:1" />
      <path
         id="svg_3"
         d="M 136,264 H 72 a 24.0275,24.0275 0 0 0 -24,24 v 64.80518 A 40.06773,40.06773 0 0 0 16,392 V 496 H 32 V 392 a 24.03879,24.03879 0 0 1 16,-22.624 v 67.31 l -5.65674,5.65673 11.31348,11.31446 28,-28 a 8.97038,8.97038 0 1 1 12.68652,12.68554 l -20,20 A 8.00076,8.00076 0 0 0 72,464 16.01833,16.01833 0 0 1 56,480 v 16 A 32.045,32.045 0 0 0 87.80957,467.50391 L 91.3136,464 H 112 v 32 h 16 v -32 h 8 a 24.0275,24.0275 0 0 0 24,-24 V 288 a 24.0275,24.0275 0 0 0 -24,-24 z m -64,16 h 64 a 8.00917,8.00917 0 0 1 8,8 v 9.376 A 23.894,23.894 0 0 0 136,296 H 72 a 23.894,23.894 0 0 0 -8,1.376 V 288 a 8.00917,8.00917 0 0 1 8,-8 z m 64,168 h -28.83191 a 24.7804,24.7804 0 0 0 5.80261,-16 H 136 a 23.894,23.894 0 0 0 8,-1.376 V 440 a 8.00917,8.00917 0 0 1 -8,8 z m 8,-40 a 8.00917,8.00917 0 0 1 -8,8 h -28.83191 c -0.47766,-0.57031 -0.97906,-1.125 -1.51135,-1.65723 a 25.00157,25.00157 0 0 0 -35.31348,0 l -1.142,1.14209 A 8.00588,8.00588 0 0 1 64,408 v -88 a 8.00917,8.00917 0 0 1 8,-8 h 64 a 8.00917,8.00917 0 0 1 8,8 z"
         inkscape:connector-curvature="0"
         style="fill:#153723;fill-opacity:1" />
      <path
         id="svg_4"
         d="M 96,370.1582 V 328 H 80 v 42.1582 a 16,16 0 1 0 16,0 z"
         inkscape:connector-curvature="0"
         style="fill:#153723;fill-opacity:1" />
      <rect
         id="svg_5"
         height="16"
         width="16"
         y="328"
         x="112"
         style="fill:#153723;fill-opacity:1" />
      <rect
         id="svg_6"
         height="16"
         width="16"
         y="352"
         x="112"
         style="fill:#153723;fill-opacity:1" />
      <path
         id="svg_7"
         d="m 495.98535,208 a 7.98675,7.98675 0 0 0 -3.54785,-6.65625 l -46.50269,-31.00195 -23.07495,-38.458 a 7.99892,7.99892 0 0 0 -2.61963,-2.668 l -64,-40 A 7.998,7.998 0 0 0 352,88 h -16 v 16 h 13.70557 l 38.40026,24 H 281.88818 l -48,-24 H 256 V 88 h -55.99152 a 7.99288,7.99288 0 0 0 -3.58612,0.84473 l -80,40 a 7.99989,7.99989 0 0 0 -3.28222,3.03906 l -24,40 A 7.99883,7.99883 0 0 0 88,176 v 72 h 16 V 178.21582 L 125.66113,142.11328 200,104.94434 274.33887,142.11328 296,178.21582 V 248 h -56 v -72 a 8.00008,8.00008 0 0 0 -8,-8 h -64 a 8.00008,8.00008 0 0 0 -8,8 v 32 h 16 v -24 h 16 v 40 h 16 v -40 h 16 v 64 h -8 v 16 h 272 a 8.00008,8.00008 0 0 0 8,-8 V 208 Z M 360,216 h 72 v 32 h -72 z m -5.57764,16 -24,-16 h 107.15528 l 24,16 z m -60.29272,-56 h 117.34094 l 14.3999,24 H 308.52954 Z m 3.47046,-9.052 32,21.33325 V 248 H 312 Z M 430.12964,176 v 40 h 32 v 32 z"
         inkscape:connector-curvature="0"
         style="fill:#153723;fill-opacity:1" />
      <rect
         id="svg_8"
         height="16"
         width="16"
         y="144"
         x="248"
         style="fill:#153723;fill-opacity:1" />
      <rect
         id="svg_9"
         height="16"
         width="16"
         y="144"
         x="136"
         style="fill:#153723;fill-opacity:1" />
      <rect
         id="svg_10"
         height="16"
         width="16"
         y="120"
         x="192"
         style="fill:#153723;fill-opacity:1" />
      <path
         id="svg_11"
         d="m 416,312 h -64 v -8 a 8.00008,8.00008 0 0 0 -8,-8 H 328 A 23.85413,23.85413 0 0 0 317.65894,298.3457 7.974,7.974 0 0 0 312,296 h -48 a 7.974,7.974 0 0 0 -5.65894,2.3457 A 23.85413,23.85413 0 0 0 248,296 h -16 a 8.00008,8.00008 0 0 0 -8,8 v 16 a 24.02718,24.02718 0 0 0 24,24 h 8 a 32.01084,32.01084 0 0 0 16,27.69482 V 400 a 8.00881,8.00881 0 0 0 0.30762,2.19824 l 16,56 A 8.001,8.001 0 0 0 296,464 h 16 a 8.00008,8.00008 0 0 0 8,-8 v -40 h 8 v 40 a 8.00008,8.00008 0 0 0 8,8 h 16 a 8.001,8.001 0 0 0 7.69238,-5.80176 l 9.73108,-34.05859 A 24.04012,24.04012 0 0 0 392,440 h 16 a 23.808,23.808 0 0 0 5.84546,-0.73877 l 2.21655,17.731 A 7.99907,7.99907 0 0 0 424,464 h 24 a 8.00054,8.00054 0 0 0 7.95117,-7.11621 l 8,-72 A 7.98678,7.98678 0 0 0 464,384 v -24 a 48.054,48.054 0 0 0 -48,-48 z m -64,32 h -8 A 15.97015,15.97015 0 0 1 336.84058,342.30566 24.11809,24.11809 0 0 0 350.62378,328 H 384 v 28 a 12,12 0 0 1 -24,0 v -4 a 8.00008,8.00008 0 0 0 -8,-8 z m -24,-32 h 8 v 8 a 8.00917,8.00917 0 0 1 -8,8 h -8 v -8 a 8.00917,8.00917 0 0 1 8,-8 z m -56,0 h 32 v 32 a 16,16 0 0 1 -32,0 z m -24,16 a 8.00917,8.00917 0 0 1 -8,-8 v -8 h 8 a 8.00917,8.00917 0 0 1 8,8 v 8 z m 160,96 h -16 a 7.94314,7.94314 0 0 1 -2.64941,-0.46045 32.0442,32.0442 0 0 0 20.87646,-13.22412 l 1.58887,12.71094 A 7.95919,7.95919 0 0 1 408,424 Z M 448,383.55664 440.83984,448 H 431.062 l -7.124,-56.99219 A 7.99907,7.99907 0 0 0 416,384 h -8 a 8.00008,8.00008 0 0 0 -8,8 16.01833,16.01833 0 0 1 -16,16 h -9.96533 l 1.65771,-5.80176 A 8.00881,8.00881 0 0 0 376,400 v -8 h -16 v 6.87988 L 345.96582,448 H 344 v -40 a 8.00008,8.00008 0 0 0 -8,-8 h -24 a 8.00008,8.00008 0 0 0 -8,8 v 40 h -1.96582 L 288,398.87988 V 376 A 32.04829,32.04829 0 0 0 319.64819,348.729 32.04382,32.04382 0 0 0 344,360 h 0.28467 A 28.00135,28.00135 0 0 0 400,356 v -28 h 16 a 31.79414,31.79414 0 0 1 16,4.30518 v 8.38134 A 19.31415,19.31415 0 0 1 412.68652,360 H 408 v 16 h 4.68652 A 35.34137,35.34137 0 0 0 446.58911,350.60107 31.88869,31.88869 0 0 1 448,360 Z"
         inkscape:connector-curvature="0"
         style="fill:#153723;fill-opacity:1" />
      <path
         id="svg_12"
         d="m 296,64 a 24,24 0 1 0 24,24 24.02718,24.02718 0 0 0 -24,-24 z m 0,32 a 8,8 0 1 1 8,-8 8.00917,8.00917 0 0 1 -8,8 z"
         inkscape:connector-curvature="0"
         style="fill:#153723;fill-opacity:1" />
      <path
         id="svg_13"
         d="m 296,40 a 47.68722,47.68722 0 0 0 -33.94092,14.05859 l 11.31348,11.31446 a 32.03672,32.03672 0 0 1 45.25488,0 L 329.94092,54.05859 A 47.68722,47.68722 0 0 0 296,40 Z"
         inkscape:connector-curvature="0"
         style="fill:#153723;fill-opacity:1" />
      <path
         id="svg_14"
         d="m 335.59814,48.40234 11.31348,-11.31445 a 72.08234,72.08234 0 0 0 -101.82324,0 l 11.31348,11.31445 a 56.06457,56.06457 0 0 1 79.19628,0 z"
         inkscape:connector-curvature="0"
         style="fill:#153723;fill-opacity:1" />
    </g>
  </g>
</svg>
