<svg width="512" height="512" xmlns="http://www.w3.org/2000/svg" preserveAspectRatio="xMidYMid meet">
 <metadata>Created by potrace 1.15, written by Peter Selinger 2001-2017</metadata>

 <g>
  <title>background</title>
  <rect fill="none" id="canvas_background" height="402" width="582" y="-1" x="-1"/>
 </g>
 <g>
  <title>Layer 1</title>
  <g id="svg_1" fill="#000000" transform="translate(0,512) scale(0.10000000149011612,-0.10000000149011612) ">
   <path fill="#666666" id="svg_2" d="m1475,4829c-195,-200 -266,-291 -339,-436c-107,-214 -145,-367 -153,-608c-6,-190 13,-339 61,-488c15,-43 26,-82 26,-87c0,-6 -168,-10 -456,-10l-457,0l6,-157c6,-181 17,-230 81,-358c82,-164 197,-279 361,-361c130,-65 176,-75 366,-81l166,-5l192,-482c105,-264 191,-485 191,-489c0,-5 -26,-38 -59,-73c-64,-70 -117,-163 -151,-264c-31,-92 -38,-262 -16,-362c31,-140 125,-302 228,-393c57,-50 225,-139 286,-152l37,-8l-45,-6c-25,-3 286,-7 690,-7c715,-2 738,-1 810,19c243,67 426,239 506,474c36,106 44,258 20,371c-24,112 -94,248 -168,328c-48,53 -59,71 -54,89c4,12 91,231 194,487l187,465l160,6c180,7 248,21 360,76c161,78 292,209 371,368c64,129 75,177 81,358l6,157l-462,0c-253,0 -461,1 -461,3c0,2 11,37 25,78c53,156 69,259 69,459c0,210 -17,315 -80,487c-81,226 -174,361 -420,612l-181,185l-7,-284c-9,-381 -26,-521 -83,-705c-29,-94 -112,-295 -121,-295c-4,0 -68,15 -142,34c-348,87 -746,87 -1085,-1c-55,-14 -109,-27 -121,-30c-17,-4 -26,7 -53,69c-44,96 -106,284 -125,378c-22,104 -35,281 -44,579l-7,253l-190,-193zm2300,-800c20,-73 27,-128 32,-246c6,-145 -6,-279 -27,-313c-5,-8 -28,2 -76,37c-38,27 -86,60 -106,72c-21,12 -38,27 -38,32c0,6 18,51 39,102c50,119 96,258 117,358c20,92 23,90 59,-42zm-2258,-309l50,-115l-70,-43c-39,-23 -88,-57 -109,-74c-32,-25 -42,-28 -48,-17c-19,29 -34,159 -33,279c1,106 6,143 32,244c17,65 34,123 37,128c4,6 26,-57 49,-138c24,-82 65,-201 92,-264zm1285,-221c427,-44 841,-274 966,-537c35,-74 37,-81 37,-182c-1,-121 27,-41 -251,-738c-90,-227 -185,-459 -210,-517l-46,-104l-51,7c-59,8 -1293,10 -1376,2l-55,-5l-88,215c-143,347 -396,993 -409,1044c-6,26 -10,81 -7,125c7,113 51,203 154,311c126,132 289,229 503,300c269,90 509,113 833,79zm-1820,-696c-2,-43 4,-114 11,-158c8,-44 13,-82 11,-84c-9,-9 -162,22 -226,46c-91,35 -190,124 -237,213l-32,60l238,0l238,0l-3,-77zm3605,69c15,-10 -1,-44 -55,-115c-78,-102 -198,-170 -334,-188c-43,-6 -81,-9 -83,-7c-2,2 1,24 7,48c6,25 11,96 12,157l1,113l220,0c121,0 225,-4 232,-8zm-1350,-1774c106,-38 195,-117 241,-216c24,-50 27,-69 27,-162c0,-93 -3,-112 -27,-162c-35,-76 -104,-148 -181,-189c-62,-33 -62,-33 -252,-41c-236,-10 -1007,-8 -1094,3c-130,15 -252,105 -309,227c-24,50 -27,69 -27,162c0,93 3,112 27,162c37,80 107,152 187,191c59,29 77,33 186,38c66,4 359,5 650,4c433,-2 538,-6 572,-17z"/>
   <path fill="#666666" id="svg_3" d="m1932,2544c-107,-55 -121,-198 -26,-271c96,-73 238,-10 251,111c14,119 -120,214 -225,160z"/>
   <path fill="#666666" id="svg_4" d="m3052,2544c-107,-55 -121,-198 -26,-271c96,-73 238,-10 251,111c14,119 -120,214 -225,160z"/>
   <path fill="#666666" id="svg_5" d="m2079,857c-52,-35 -79,-82 -79,-137c0,-122 143,-203 241,-137c106,71 106,203 0,274c-46,31 -116,31 -162,0z"/>
   <path fill="#666666" id="svg_6" d="m2879,857c-52,-35 -79,-82 -79,-137c0,-55 27,-102 79,-137c98,-66 241,15 241,137c0,122 -143,203 -241,137z"/>
  </g>
 </g>
</svg>